   <svg viewbox="-70 80 900 230" xmlns="http://www.w3.org/2000/svg">
      <path class="mapa-svg-estados Alvarães-class" id="Alvarães"
        href="https://594aee3c-e15e-44d4-b67a-780ff78cdb01.filesusr.com/ugd/b61413_78b90cadb78a465292b3ab459306e59c.pdf"
        d="m192.85 179.16 1 .87.45.25.5.74-.08.29-.75-.03v.26l-1 .3-.36.49-.24.06-.58.65-.72.26-.12.56-.53.5-.47.67-.4-.03-.16.3.33.54-.36.34-.15.55.34.64-.75.58-.23.45-.05.8.17 1.04-.66.16-.27-.12-.53.44-.45.77-.73.93-.47.08-.22.35-.5.1-.29.26-.43-.05-.62.4-.69.23-.89.65-.37.07-1.02.45-.64.62-.54.1-.64.37-.2-.07-1.26.51-.34.38-1.45.96-.7.04-.68.56-.48.06-.64.71-.29-.56.17-.77.23-.38.65-.46-.07-.66.2-.6.3-.36v-.44l-.25-.4-.13-.59.14-.7.37-.62.66-.73.23-.77 1.06-.54.3-1.23.86-.8.05-.96.46-.32 1.4.13.3-.15.55-.67.5.34.86-.44.38-.67.5-.54.77-.32.66-.08.8-.33.75-.08.73-.6.15-.67.45-.04.42-.47.71-1.03.28-.96.08-.95.21-.4 1.08-1.38.01-.65.5.07.56.3.32.35h.53l.72.26.4.66z">
      </path>

      <path class="mapa-svg-estados Amaturá-class" id="Amaturá"
        href="https://594aee3c-e15e-44d4-b67a-780ff78cdb01.filesusr.com/ugd/b61413_8c59c7b7d534451c8c3a38f84c9058c8.pdf"
        d="m138.96 182.26-.3.27.1.56-.4.44h-.42l-.36.3-.92.14-.53-.2-1.23-.09-.08.4.69.5-.01.45-.31.73.28.37.33.1.05.54-.26.14-.22.74.03 1.7-.36.25-.61.07-.27.2-1.35.1-.26-.16-.36-.8-.7-.4-.5.24h-.38l-.51.34-.86-.05-.34.69-.78.23-.2-.36-.88-.56-.47-.62-.77-.7-.4.22-.41.54-.14-8.16.59.02-.25-.53.35-.33.5-.05.54.31.4-.39.9.11v-.34l.58-.16.17-.37-.02-.68.5-.09 1.87.25.65.43.33-.37-.21-.34 1.1-.4.04.84.33-.03.3.37.54-.32.27.48.52-.4.42.77 1-.44.55.42.44.9.17.61-.25 1.2-.14.28z">
      </path>

      <path class="mapa-svg-estados Anamã-class" id="Anamã"
        href="https://594aee3c-e15e-44d4-b67a-780ff78cdb01.filesusr.com/ugd/b61413_92605851c760425f9c943ec4c3bb69f3.pdf"
        d="m254.43 185.2-.02.6.22.12.04 1.05-.68.07-.7-.1-.78.41-.72.58-.5.53-1.35-.02-.55-.45-.62.03-.55.27-.7-.51-.83-.01-.77-.23-.72.52-.85.09-.43-.12-.58-.57-.57-.32-.9-.28-.37-.4.12-1.18-.23-.6.02-.33-.56-.34-.3-.74.18-1.25-.2-.75.47-.27.3.18.06.45-.05 1 .4.26.6-.25.9-1.06.51-.2 1.23-.03.8.5.46.82.72.44.76.65.6.03.2-.46.34-.22.63.42.32-.1.83.28.38.46.46.2h2.65l.57-.24.01.38-.33.18z">
      </path>

      <path class="mapa-svg-estados Anori-class" id="Anori"
        href="https://594aee3c-e15e-44d4-b67a-780ff78cdb01.filesusr.com/ugd/b61413_33440dda3efd4338b432a13a7ebbedc3.pdf"
        d="m251.3 188.47.78 1.3.21.75.38.62.46.52v.4l-.99.54-.93 1.22-.35.27-1.14 1.2-.26.97-1.07 1.52-.7.74-.74-.2h-.46l-.78.55-1.03-.03-.25-.42h-.6l-.12.24-.44-.08-.52.2-.06.27h-.74l-.56.46-.24.03-.18.5.08.5-.5.45-.57.24-.43.48-.6.33-.14.35-.65.36-.65-.42-.47.13-.34.53-.05.48-.35.52-1.22.44-.96.14-1.08.34-.49.02-1.03.33-.56.09-.5-.26-.48-.04-1.6.65-.35.26-.63.07-.78-.2-.59-.34-.66.25-.15.65-.02.64-.2.44-.59.56v-.5l.17-.34-.36-.2-.36-.5 1.36-3.3 1.04-.05.12-.47.4-.2.92-.12.43.18.25.37.41-.68.45.27.2-.54.4-.28-.05-.65.66-.11.15.56.54.38.46-.13.02-.41.65.1.36-.35-.29-.25.2-.36.41-.2.13-.42.67-.56.06-.66.3-.04.3-.5.51.1.47.3.76.05.73-.07.55-.46-.44-.4.04-.67-.57-.36-.66-.61-.1-.32 1.03-.11.6-.4.74.64.76.34.76-.54.37.12.76-.2.75-.04.95.22.61.52 1 .17.7-.34.21.56.41-.54.04-.38-.93-.1-.19.28-.67-.16-.39-.52.2-.67.58.37.36-.32.33.26.3-.08-.2-.8-1-.84.74-.21.7-.8-.02-4 .72-.52.77.23h.82l.71.53.55-.27.62-.03.55.45z">
      </path>

      <path class="mapa-svg-estados Apuí-class" id="Apuí"
        href="https://594aee3c-e15e-44d4-b67a-780ff78cdb01.filesusr.com/ugd/b61413_6bfaee60b067493b958c85760d49fe92.pdf"
        d="m310.2 253.13.18.22-.64.68-.7 1.13v.62l-.17.54.32 1.15.04.56-.66.58-.22.41-.43.41-.13.73-.3.64-.7.55-.68.34-.12.3.18.37v.6l.35.8.42.43.17 1 .5.8.06 1.15-.49.34-.08.27.16.69-.15.4.03.7-.13.25.23.66-.53.32-.17.92-.63.82-.5.89.05.6.18.25-.1.58.38.43-.44.87-.41 1.05.45.3.64-.3.44-.03.4.19-1.05 1.1-.5.32-.46.1-2.05.03-7.16.05h-9.16l-9.18-.04-7.42-.07.4-.55-.58-.11.05-.86-.12-.6.1-.43-.5-.44-.26-.58-.9-.62.22-.24-.34-.9.8-1.01-.2-.3.1-.41.78-.2-.2-.7-.2-.18.23-.62-.56-.16.23-.77.25-.17-.07-.62.23-.55v-.63l.18-.66-.26-1.3-.48-.5-.17-.57-.43-.23.12-.27-.28-.85.19-.43-.6-.63.16-.57-.43-.13.02-.62-.45-.5v-.33l-1-.07-.51-.47.2-.53-.27-.73.16-.73-.12-.6.5-.89.04-.7-.12-.59.26-1.1.07-1-.34-1.07.05-.47-.35-.64-.5-.35 10.06-4.13 4.52-1.78 6.58-3.26 3.65-1.9 3.8-2.32 1.39-.02 2.57-.12.32.73.02.85-.55 1.3-.14.8.18.7-.06.82.16.53.46.7.69.56.16.98.3.46.29-.02.13.53.8.61.4.12.42.6.35.81.28-.04.27.56 1.06-.02.17.28h.63l.06.28-.24.82-.33.28-.22.62.15.38-.61.22.6.68-.22.4-.56.48.59.97.7.14z">
      </path>

      <path class="mapa-svg-estados Atalaia_do_Norte-class" id="Atalaia_do_Norte"
        href="https://594aee3c-e15e-44d4-b67a-780ff78cdb01.filesusr.com/ugd/b61413_e38c0c5b51b84e84810574f73f9748a3.pdf"
        d="m98.27 199.12-.02.87-.15.49.15.3.06 1.87.17.24-2.4 2.64.56.64.17.58.35.39-.01.37.55.09.71 1.78-.57.45.07 1.64-.25.2-.13.6.1.77-.6.62-.4.1-.38.44-.1.55-.47.27-.38 1.07-.48.6-.17.46-.22 1.27-.77.7v.78l-.27.4-.6.22.04.73-.3 1.05.2.6-.3.66-.02.64-.3.37.07.52-.95 1.58-.4.38-.32 1.05-.55.45-.31.5.19.37-.35.3.65 1.19-.02.94.28.27-.24.6-.2.99-1.02.97-.6.24-.13.39-.6.7-1.06.76-.3.69-.67.66-.85-.02-.11.29-.5.3-.43-.17-.5.32-.42-.04-.64.2-.66 1.1-1.52.29-1.05-.11-1.25 1.1-.57-.17-.15.23-.63.94-.12.43-.42.47-.64.42-.1.53-.3.37-.6-.2-.3.34-.31-.07-.33 1.53-.58-.43-.16.44-.6.38-.3-.38.25-.37-.87-.8-.32-.03-.26.54-.45.09-.17-.26-.88.29.12 1.04-1.1.34-1.25-.17-.28.4-.51-.15-.3.43.2.58-.2.63-.55.16-.57-.04-.68.4-1.65.13-.56.85-.44.18-.9-.2-.57.48-1.13-.05.29-.38-.4-.27-.7-.97-.75.08-.2.18-.82.09-.64-.33-.8-.04-.31-.24-.63-.85-.28-.55-.26-.16.02-.86.6-.2-.16-.6-.23-.2h-.57l-.8.59-.4.6-.61.14-.55.36-1-.05-1.2.5-.61.05-1.98-.9-.32-.55-.94-.5-.5.1-.68-.06-.67.4-1.08.12-1.51-.07-.16-.3-.62.09-.31-.13-.52.28-.57-.22-1.06.12-.93.3-.06.48.3.35-.74.72-.52 1.65-1.12-.4.48-.47.84-1.11-.21-.41-.07-.61-.21-.41.23-.57.36-.36.25-.88.29-.1.42-.48.43-.8 1.03-.65.43-.06.77-.77 1.02-.21.38-.26 1-.28.03-.32.43-.4 1.08-.03.82-.15.3-.24.3.13.5-.9.56-.13.26-.4.1-.51.27-.33-.1-.31.25-.4-.43-.4-.31-1.15-.18-.07-.08-.77-.95-.93-.02-.76-.52-.6-.01-.7.33-.56-.1-.73.48-.48.5-.75-.1-.42.34-.52-.03-.3.34-.51.64-.17-.04-.45.42-.12.52-.57.38-.72.38-.16.5-.64.1-.73.44-.14-.22-.53.37-1.5-.18-.73.12-.58.84-1.76.19-.51.5-.66.12-1.06-.1-.7-.28-.6 1.22-.5.03-.5.56.05.15-.24.62-.13.09-.48.47-.2.97.19.73-.47.08-.73.66-.25.39-.41.34-.01.4-.28.84-.3.8-.71.48-.22.04-.73.2-.42.85-.2.06-.32.76.1.54-.05.54-.23 1.33-.96.25.17.47-.35.67-.88.3-.03.1-.51.6.33.52-.6.55-.05.16-.5.6-.58.8-.54 1-.4.42-.06.28.29.35-.32.47.47.44-.18.63.1.48-.3v.62l.36.15.65-.48.57-.7.54-.03.16-.3.67-.17.75.48.5-.68 1.23.29.17-.47.43.45.34-.26-.1-.56.98-.3.27.82.3-.6.83-.1.35.42.3-.58.75.16.27.25.34-.28.5-.01.13-.26.69.17.6-.45.27-.52.35-.03.02-.53.52-.25-.33-.5h.63l.05-.55.39-.63.29.05.57-.47.52.44.86.27.27-.94.22-.35.48.29-.22.4.24.47 1.06-.42.34-.33.44-.13.2.37-.21.48.32.1.15-.53.39.19.63-.33.32-.32.76.02.43.69.33-.04.02-.4.58.18.25 1.2-.55.45.46.4.6-.08.01.72.82.18.06.58.94-.45-.28-.37.17-.54z">
      </path>

      <path class="mapa-svg-estados Autazes-class" id="Autazes"
        href="https://594aee3c-e15e-44d4-b67a-780ff78cdb01.filesusr.com/ugd/b61413_e50db1852f4a4b5daf3dd8f2f8e4cbca.pdf"
        d="m296.58 186.03-1.2 1.05-.35.05-1.56 1.29-.1.35.68.95.16.36-.03.54-.66 1.03-.26.19-1.2.25-.62.53-5.17-.01-.45.1-.03.54-.53.48-.01.68-.51.98.14.72-.11.4-.61 1.04-.42.06-.55-.24-.34.42h-4.14l-.33.22.15.37-.88.31.33.82.04.52.33.4-.1.46-.75.15-.45.25-.5.06.07-.5-.4-.12-.25.47-.82-.34.08-.88-.43.12-.37-.19-.23-.68-.38-.36-.42.03-.83-.72.16-.45-.35-.8 1.54-.25.47-.23.42.76.32.22.55-.72v-.43l-.3-.5-.04-.67.27-1.1.34.05.36-.7 1.98.01.56.45.3-.23-.1-.5.3-.25.07-.4.34-.07.25-.71.48-.48-.13-.56.03-.97.2-.85.2-.15.42-3.45.22-.65.65.15.42-.22.68.19.13.28.75.25.67.78.66-.03.16-.5.57-.38.62.12.4-.13.67.22.4-.75.8-.38.35-.6.66-.36.7-.26.28-.38-.01-1.96 1.45.72.53.05 1.56-.6.4-.1.63.25.62.67v.29l.6.83 1 .74h.43l.73-.37-.28 1.15-.58.07-.52.33-.51.54z">
      </path>

      <path class="mapa-svg-estados Barcelos-class" id="Barcelos"
        href="https://594aee3c-e15e-44d4-b67a-780ff78cdb01.filesusr.com/ugd/b61413_f5d1c081a4054274b75d9bd392131722.pdf"
        d="m229.07 96.28.1.53.95.8.65.29.35.6v.74l.32.65.08.63.37 1.1.32.7.25 1.19.42.65.88-.04-.14.68.08.56.5.7.07.32-.43.6-.31.86.06.59.27.24.13.52-.08.4-.66.5-.58.84-.1.46.34 1.44-.25 1.5.18.4.08.75.6-.18.47.64.2.68-.35.82.15.34-.14.8.2.44.04.64.25.22.26.74-.07.44.33.94.7.3.58.64.19.44.12.95-.01.7.4.36.34.58.64.37-.15.86-.05.9.23.55.9.37-.13.72-.2.06-.17.67-.27.36-.84.46-.1.75-.38.27-.15.77.06.43.39.39.07.6-.38.45h-.4l-.37.28-.42.62-.67-.1-.56-.3-.48.07-.26-.15-.38.58.23.64-.27.15.17.4.69.36.5.04.67.29.35.28.19.72.93.94.7.38.24.43.56-.05.42.17.07.3.5.1.5.55h.32l.25.41-.13.28.33.36.67.07.79.74.49 1.06.03.26.37.47.3.95.4.42.36.63.18.68 1 .1.4-.03.35-.33 1 .2.4.32 2 .67.8.83.27.54 1.1.98.14-.03.22.5.69.23.17.3-.06.54.08.62-.21.95.09.64.58 1.24.07.57-1.41.2.26.44-.08.31-.84.32-.5-.9-.04-.7-.15-.16h-1.06l.06-.48-.28-.14-.74.06.1.36-.64.64-.89-.1-.54.58-.25.04-.5.42-.36-.34-.46.18-.52-.03-.03-.42-.64.27-.14.57-.51.24-.08.25-.6.68-.52-.1.06-.35-.45-.43-.45.45-.21.64-.3.3-.38.65-.41.2-.22.54-.48-.24-.41.02-.26.48-.25-.25-.96.48-.18-.2-.58.3-.33.5-.68.32-.17-.08-1.04.27-.66.38H233l-.53.5-1.74.28-.75-.06-.6-.15-.37.3-.83.28-.07.17-.68.08-.44.23-.95 1.4-.76.16-1.45.47-.14.56-.61-.1-1.8.27-1.01-.17-.4-.27-.4-.56-.46-.09-.48.56-.65.48-.36-.02-.61-.33-.31-.39-.13-.6-.49-.57-.76.17-.32-.07-.49-.44-.5-.1-.72.6-.42.02-.65-.24-.32.2-.23.6-.44.26-.91.02-.36-.16-.93.26-.55-.1-.9.1-.3-.4-.06-.87-.52-.79.12-1-.04-.53.16-.46-.35-.5.03-.46-.3-.02-.83.53-.19.02-1.23-.36-.24-.7-.57-.5-.56.06-.37.3-.1 1.44-.47.2-.49.9-.42.18-.52-.22v-.2l-.72-.82-.97-.39-.6-.09-.27.97-.38.18-1.29-.36-1-.19-.05-.35-.62-.56-.2-.36.43-1.5-.29-.67-.3-.02-.51.31-.64.2-.28.46-1.14.12-.35.35-.77.18-.1-.28.2-.88-.06-.32-.38-.46.27-1.78-.16-.23h-.53l-.83.46-.37.72-.3.28-.47-.13-.91.22-.62-.26-.21-.4.1-1.16-.04-.68-.24-.62-.63-.39-1.1.17-.36-.13.01-.5-.53-.06-.23-.22-.46-1.1.46-.59-.05-.3.45-.56.11-.45.45-.64-.06-.7.75-.14 1.01-.04.61-.32.9-.15.56.12.5-.68.17-.7-.47-.27.01-1.1.43-.27-.07-.89.28-.58-.14-.26.25-.42.5.05.6-.4.05-.76-.32-1.03.55-.03-.02-.43.67-.08.35.27.33-.13.31-.98-.02-.54.38-.54.1-.44-.25-.34.12-.53.55-.13-.07-.3.41-.13-.15-.58.12-.27-.06-.85-.42-.88.24-.8-.29-.2.28-.53-.4-.95.2-.34.83-.43.2-.22.94-.06 1.02-.54.69.05.83-.28.5-.3.92-.07.88-.73 1.94-.3 1.62.11.7-.19.56-.42 1.1-.3.32-.6-.07-1.14-.6-.58.14-.34.42.2.39-.24.25-.56.31-.04.33-.59.25-1 .26-.16.01-1.95.34-.14v-.84l-.5-.54.12-.47-.49-.68.06-.5-.2-.49.26-.12-.1-.5-.44-.32.08-.42-.26-.2-.1-1.57-.35-.7.12-.26-.29-.6-.77-.69-.33-.12-.32-.64-.67.18-.44-.45-.23-.04-.05-.59-.42.14-.8-.29-.4-.27-.36.05-.73-1.03-.5-.25-.29.05-.12-.85-.49-.19-.6-.57-.59-.14-.2-.49-.27-.03-.3-.9-.36-.16-.3-.66-.38.05-.34-.2-.63.05-.53-.74-.44-.17-.4-.5-.39-.27-.36-.54-.77-.55.2-.64.52-.87.35-.56.25.44-.08.28.53.7.3.08.43-.23.36-.93.31.13.43-.13.44-.5.42-.29.36-.03.27-.29-.12-.38.52-.73.4-.33.54-.13.42-.45.4-.2.27.14.72-.98.82.15-.1.61-.6.96-.16.62 1.01.18.23-.18.06-.73.43-.57.61-.29.48-.47.44.05.36-.29.02-.32.88-.7.57-.12.83-1.53.06-.46-.29-1 .27-.55.12-.9-.27-.2.16-.55v-.85l.76-.36.42-.5.35-.2.93.14.3-.15 1.35.41.1-.4.7.17 1.43-1.15.63.52.1-.86.31.01.48-.73.98-.46.46.02.77.28.46-.45.4.28.82-.39.15-.64-.1-.29.4-.22.22.26.86.57.61.2 1.45-.48.85.14.47 1.35.75.9.95.55.76-.06.57-.23 1.94.26.45.44 1.48.55.46.47.08.4-.09.66-.48.98.15 1.7-.1.4-1.14 1.14-.22.77z">
      </path>

      <path class="mapa-svg-estados Barreirinha-class" id="Barreirinha"
        href="https://594aee3c-e15e-44d4-b67a-780ff78cdb01.filesusr.com/ugd/b61413_a66fba9a78ed41089758b3a98f85f736.pdf"
        d="m322.9 169.1.32.57.5.32 1.4-.13.7.77.7.3.46-.22.34.28v.43l.7-.08.76.2 1.14-.36.14-.27.7-.06.07-.18.68-.21.52.2-.57 1.3.76.4.9-.54.45.36.43-.47.82-.23.06.44-.68.08-.39.53-.43 1.25.03.42-.37.66-1.1-.37-.4.22-.5-.01-.86.47-.06.87-.19.56.56.34.05.7-.43.85v.32l-.48.7.04.54.34.13h.78l.17-.19.51.43.1.68.9.57h.62l.24.38.5.18-1.36 2.94-.47 1.12-1.07.38-.28-.13-.58.46-.87-.16-.29.15h-.59l.1.52-.3.12-.24.42-.62-.03-.32.3-.8-.05-.23-.4.08-.46-.23-.32-.5.07-.1-.27-.45-.14-.3-.6-.28-.18-.2-.54-.03-.63.23-.7-.15-.6.08-.43-.2-.83-.32-.16-.2-.84-.34.22-.59-.4-.06-4.1.44-.48.4.2.17-.51.24-.14.63-.78v-.46l-.79.1-.48.4-.75.16-.26-1.37.2-.23.61-.25-.8-.63-.22-.02.08-.55.6-.56.66-.13v-.5l-.7-.26v-.3l.46-.65-.12-.47z">
      </path>

      <path class="mapa-svg-estados Benjamin_Constant-class" id="Benjamin_Constant"
        href="https://594aee3c-e15e-44d4-b67a-780ff78cdb01.filesusr.com/ugd/b61413_05e2b2632add47b189929cf69e6d6065.pdf"
        d="m101.47 198.74.4.45h.27l1.15.85 1.1.57 1.41-.39 1.21-.67 1.24-.06.64-.56.33.74.45.39.73.28.21.49-.19.7-.39-.1-.59.2-.49.47-.3.82-1.1.2-.17.34.1.71-1.42.12-.4.24-.83 1.06-.54.35-.66.6-.94.46-.17.89-.68 1.28-.62.7-.1.4.42.94.03.52-.89.28-.79 1.35-.86.72-.35.9-.57.49-.2.59.1.79-.47.7-.22.63.12 1.04-.22.8-.05.7-.24.58-.46.37.04.3-.33.68-.57.17.09.68.4.23-.1.56.09.72-.26.77.08.6-.51.46-.15 1.04-.3.35.24.47.04.9-.6.17-.4.33-.53.85-.55.58-.35 1 .16.29.66-.13.57.77-.1.3.34.29.07.47-.55.25-.43 1.26-.3-.07-.72.24-.14.29-.68.26-.43.73-.57.48-.13.88-.25.45-.15.63-.4.2-.64-.22-.59.36-.27.37-.5.31-.74.04-.1.62-.22.28-1.3.34-.65-.36-.26.26-.26-.42-.8-.8-.32-.09-1.72.25-.24.27.02.47-.46-.15-.25.22-.66.04-.16.32-.8-.1-.21.2-.6-.2-.33-.54-.76-.16.14-.23.58.17 1.24-1.1 1.05.11 1.52-.28.66-1.1.64-.2.42.03.5-.32.43.18.5-.3.11-.3.85.02.67-.66.3-.69 1.06-.75.6-.7.13-.4.6-.24 1.03-.97.2-.98.23-.6-.28-.28.02-.94-.65-1.18.35-.3-.19-.38.31-.5.55-.45.33-1.05.4-.38.94-1.58-.07-.52.3-.37.03-.64.3-.66-.2-.6.3-1.05-.05-.73.6-.22.27-.4v-.78l.77-.7.22-1.27.17-.45.5-.6.37-1.08.47-.27.1-.55.38-.44.4-.1.6-.6-.1-.78.13-.6.25-.2-.07-1.65.57-.45-.7-1.78-.57-.09.01-.37-.35-.39-.17-.58-.55-.64 2.4-2.64-.18-.24-.06-1.87-.15-.3.15-.49.02-.87.57-.2.4.28.03.58.52.17.3.36.38-.32.54-.17.3-.47z">
      </path>

      <path class="mapa-svg-estados Beruri-class" id="Beruri"
        href="https://594aee3c-e15e-44d4-b67a-780ff78cdb01.filesusr.com/ugd/b61413_9dbac98e7c644d61911e4e3945d9e8cb.pdf"
        d="m258.98 190.88-.1.77-.18.39-.48.55-.64.36-.24.35-.47.29v2.93l.56-.27.6.16.48-.23h.4l.36-.7.35.02.21.32.4.03.2.58.67-.08.54.7 1-.33.54.52-.33.91-.41.86-2.83 2.5-2.8 2.15-1.43 1.47-.41.62-.4.87-.43.9-1.78 1.62-.43.65-1.43.87-1 .85-2.12 1.93-1.47 1.23-1.36.85-1.44 1.4-1.2.47-1.26 1.67-.38.78-4.49-4.35-3.9-3.76-1.29-1.78-.5.29-.27.8-.43.22-.27-.1-.06-.43.71-.62-.17-1.03-.36-.27-.76.09-.62-.76-.37-.11-1.09.18-.25-.25-.45.03-.3.56-.99-.52.58-.56.21-.44.02-.64.15-.65.66-.25.6.35.78.19.63-.07.34-.26 1.6-.65.49.04.5.26.56-.1 1.03-.33.49-.02 1.08-.34.96-.14 1.22-.44.35-.52.05-.48.34-.53.47-.13.65.42.65-.36.13-.35.6-.33.44-.48.56-.24.5-.44-.07-.5.18-.5.24-.04.56-.45h.74l.06-.27.52-.2.44.07.12-.24h.59l.25.42 1.03.03.78-.55.46.01.75.2.7-.75 1.07-1.52.26-.97 1.14-1.2.35-.27.93-1.22.99-.54v-.4l-.46-.52-.38-.62-.21-.75-.8-1.3.5-.53.73-.58 1.38 1.3 3.28.1-.02.55.15.55-.23.31.69.27.9-.03z">
      </path>

      <path class="mapa-svg-estados Boa_Vista_do_Ramos-class" id="Boa_Vista_do_Ramos"
        href="https://594aee3c-e15e-44d4-b67a-780ff78cdb01.filesusr.com/ugd/b61413_20fa89edcc854d578c2aadefeca4d4c5.pdf"
        d="m323.94 185.44-1.15-.24-.53-.7-.4-.3-.4-1.3-.1-.82-.22-.13-.7.08-.38.33-.22-.43-.35-.17-.06-.86-.2-.16.05-1.22.27-.1.04-.7h-3.18l.03.58-.16.27-.1.76-.3.37-.17.57-.76.27-.4-.16-.89 1.06-1.97-.08-.14-.6.1-.53-.02-1.07.42-.24.37-.46.14-.47.36-.27 1.81-3.2.21.19.78-.01.3-.13.72.64.66-.53.42-.01.7-.32.56-.04.24-.47.54-.43.44-.93.37-.23.37.08.2-.25.5-.13.23.02.8.63-.61.25-.2.23.26 1.37.75-.16.48-.4.78-.1v.46l-.62.78-.24.14-.17.5-.4-.2-.44.5.06 4.1.59.39.34-.22.2.84.32.16.2.83-.08.44.15.6-.23.7z">
      </path>

      <path class="mapa-svg-estados Boca_do_Acre-class" id="Boca_do_Acre"
        href="https://594aee3c-e15e-44d4-b67a-780ff78cdb01.filesusr.com/ugd/b61413_25a07f09dd714d7e90e954047df02b10.pdf"
        d="m152.68 273.68-.05.74-.66.64.19.95-.45.15-.17.54-.36.42v.57l1 1.26-.34.6.12.51.3.3-.26.96-.58.21-.2.4-.53-.03-.5.24.08.28.42.3-.48.22-.18.56-.56.01-.32.92-.5.34-.16.55.24.4-.17.5.09.63-.2.67-.27.48.62.33.02.98-.33.94.16.55.04.67-.4.93-.35.5-3.37-.56-4.4-2-3.73-1.69-4.3-1.94-7.55-3.42-4.85-4.16-5.15-4.42.8.37.69-.25.52-.38.3.02.17.4.85.04.34-.67.59-.22.44-.3.13-.46.49-.72-.14-.27.08-.55 1.07-.8-.16-.36.19-.93-.36-.6.2-.84-.2-.44.58-.43h.4l.5-.7 1.6-.62.9-.08.66.3.58.1 1.17-.45.25-.25.3.24.3-.33.97.3.7.38.49-.16.79.32.52-.12 1.16-.07.4.21.03.37.29.44.66-.28.64.14.4.46.46.13.13.3.43-.03.47.32.07.64.83.58-.11.26.55 1.2.62.42.59-.06.83.31.24.41.46.36.17-.2.44.38.62.11.42.58.73.02.46.84.9.31.33.41.4-.15.32.34.2-.47.8-.26.15-.56z">
      </path>

      <path class="mapa-svg-estados Borba-class" id="Borba"
        href="https://594aee3c-e15e-44d4-b67a-780ff78cdb01.filesusr.com/ugd/b61413_dae7604e7831441d93981a7641e1cd05.pdf"
        d="m310.69 200.59-.23.69.1.37-1 .45.17.5-.41.08-.31.45.2.6-.54.04.05.9-.45-.1.01.48-.28.56.1.32-.15.94-.47.41.08.3-.17.6-.45.3.1.4-.7.26.41.65-.75.71.17.3-.5.32-.09.82-.4.38-.35.08-.5.83.05.38-1.83.46-.08.8-.38.14-.5-.08-.33.38-.02.48h-.57l-.9 1.08.19.42-.2.26h-.68l-.61.2v.73l-.2.77-.27.44.17.3-.47 1 .08.58.45.49-.15 1.26-.23.29.6 1.11-.18.51.14.47-.28.43.27.36-.2.81.24.67-.2.47-.13 1.18.35.38.17.71-.13.43-.38.6-.21 1.14-.12.26-.45.19-.64.55-.15.53.23.68.67.53.24.5-2.57.12-1.4.02-3.8 2.33-3.64 1.9-6.58 3.26-.27-.41-.26.1-.05-.85-.48-.34.2-.71-.15-.87-.47-.3.49-.89-.08-.27.52-.24.1-.25.75-.06.19-.82.48-.85.37.5.53.2.32-.38.6.17.95.11.52.22.39-.29 5.2.01.1-.3-.32-1.26-.5-.56.12-.4-.55-.28.57-.73.3-.57.02-.45-.18-.4-.33-.23-.14-1.03-.46-.82-.33-.24.04-.72-.76-.25.05-.56-.22-.32-.66-.3.09-.22-.52-.4-.42-.8-.13-.46-.9-.8-.17-1.5.27-.4.15-.56.3-.22.54-1.21-.05-.66-.47-.33-.27.06-.22-.43-1.4.43-.38-.06-.14-.57-.32-.34.09-.95.42-.71.05-.63.45-.65-3.78-5.7-1.07-1.62-.55.12-1.4.56-.5.29-.61.02-.95-.4h-.33l-.54.27-.66 1.44-.51.79-7.35-.01.16.54-.56.7h-3.32l-1.88-1.98-4.84-5.1.39-.87.4-.62 1.44-1.47 2.8-2.14 2.83-2.5.4-.86.34-.91 1.45.3.63.42.15-.3.73-.08.37-.46 1.3-.18.77-.46.52.1.95.54 1.72.25.6-.44.36.8-.16.45.83.72.42-.03.38.36.23.68.37.19.43-.12-.08.88.82.34.25-.47.4.12-.06.5.49-.06.45-.25.76-.15.09-.47-.33-.4-.04-.51-.33-.82.88-.31-.15-.37.33-.22 4.14-.01.34-.42.55.24.42-.06.6-1.03.12-.41-.14-.72.5-.98.03-.68.53-.48.03-.53.45-.11h5.17l1.06.05-.43.38-.51.2.03.23.79.08.73-.08.37.39.18-.43.49-.05.47-.52.59-.14.04-.6.45-.08.85.39.2-.11.4-.81h.36l.45.35.39-.06.54.8-.14.44-.44.77.1.48.45.37.27.67.57.23.6.4.49.85-.17.46.05.44.43.51.08.47.59-.07.14.53-.64 1-.01.77.39.73-.15.63.58-.13.39.1.48.5.8-.43.39.4.25-.05.62.32.4-.22.38.15.2-.75.5.07.33-.42.77-.24.22-.54.47-.32.52.03.09-.38.52-.13z">
      </path>

      <path class="mapa-svg-estados Caapiranga-class" id="Caapiranga"
        href="https://594aee3c-e15e-44d4-b67a-780ff78cdb01.filesusr.com/ugd/b61413_a40365a26b534bc2a1740ff76f105f6b.pdf"
        d="M251.22 172.59v.46l.82.58.12.38.38.25.47 1.96.37.19.18 1.13.03.87.5.56.03.88.64.13.98.56.82.1.54.2.56-.01.34.26.02.43-.28.47.08.48.38.2.26.5.02.94-.3.24-.7-.73-.39-.03-.82.56-.25.96-1.6.09-.07-.5.33-.18v-.38l-.57.24h-2.65l-.46-.2-.38-.46-.83-.28-.32.09-.63-.42-.35.22-.2.46-.6-.03-.75-.65-.72-.44-.47-.81-.8-.51-1.22.03-.51.2-.9 1.06-.6.25-.4-.25.05-1.01-.07-.45-.3-.18-.46.27-.26-.18-.41.25-.46.73-.75.52-1.34.4-.14.47.1.74-.48.16-.21-.26-1.64.05-.72-.35-.16-1.03-.06-1.22-.35-1-.36-.67-.55-.75-.57-.41-.4-.47.58-.28.25-.33.72-1.6.2-1.77.27-.53.74-.62.73-.18.56-.58.93-.15.44.09.74-.13.89-.33.46-.27 1.16-.3.57-.87.39-.26 1.32-.22.7-.46 1.12.25.9-.25.54.18.34.36.25.93.66.73.06.66-.4.5-.1.4.3.38.97.3.38-.58.57.1.78-.17.43.04.47-.2z">
      </path>

      <path class="mapa-svg-estados Canutama-class" id="Canutama"
        href="https://594aee3c-e15e-44d4-b67a-780ff78cdb01.filesusr.com/ugd/b61413_045cf79f5e044736b783e087c30e0b87.pdf"
        d="m221.5 244.34.2.42.1.86-.12.35.41.4-.66.9-.35-.02-.47.3.12.47-.18.22-1.4.51-.3.8-.1 1.14.36.02-.02.4.37.32-.4.62.25.86-.22.25.88.24.07.6-.32.25-.4-.1-.85.03.13.58.37.1-.17.62-.53.84-.47.09-.07.42-.3.1-.14.54-.34.14.06.58.4.11.29.47-.53 1.34-1.06.18-1.01.8-.54.82-.82.15-.54.45.25.36-.07.87.05.58-.01.94-.8.92.09.35-.55 1.01-.85.56-.13.31.46.74-.42.36-.48.9-.31.22-.6-.48-.81-.3-.42.23-.28.46-.6.05-.02 1-.55.4.4.31.23.43-.57.46.04.37.48.5-.03.41.4.15-.03.3-.38.6-.71-.42-.08.55-.25.15-.2.74-.34.46-1.05.61-.52-.2-.33.46-.03.6.27.5-.51.67.17.53-.04.57.16.7-.13.25-.45.03-1.03.56-.42-.07-.96.14-.27-.29.3-.8-.25-.1-1 .31-1.18.54-1.83.02-.5.18-.06-.67.89-.44.1-.26-.17-.67.28-.32.19-.7.48-.15 1.05.46.2-.17.38-.8 1-.36v-.27l-.47-.35-.43-.57-.24-.66-.25-.15-.54.14-.64-.72-.43-.3.26-.35-.08-.86-.76-.57-.1-.28.19-.6.28-.37.15-.87.04-.89.35-.18.32-.83.4-.55.64-.5.24-.77-.14-.35.14-.84-.2-.33.1-.62-.35-1.29-.03-.74-.41-.56.1-1 .45-.7-.25-.6.52-1.23-.32-.68.17-.54-.27-.4-.45-.25-.16-.34-.81-.2-.1-.47.26-.78-.07-.64-.28-.37-.34-.09-.17-.7.19-.69-.5-.47.19-.43-.14-1.42-.44-.83v-.62l.17-.49v-.57h-3.6l-4.67-.04.09-.32.57-.34.3-.03.18-.35-.07-.48-.33-.18-.35-.47.4-.54.2-.52-.15-.35.04-.73-.3-.56.73-.89.57-1.12.6-.12.18.4-.44.84.5.03 1.25-.28.52.03.3-.16.15-.56.4-.4.04-.79.2-.3.58-.4.24-.45.03-.7.19-.59.48-.48.08-1.2.15-.27 1.07-.76.42-.54.23-.64.2-1.08.67-.38.38-.46.07-.5.39-.56.76-.06-.02-3 .45-.2 1.58.41 5.55 4.58 6.46 5.33 7.35 6.06z">
      </path>

      <path class="mapa-svg-estados Carauari-class" id="Carauari"
        href="https://594aee3c-e15e-44d4-b67a-780ff78cdb01.filesusr.com/ugd/b61413_3c272bf07871458798d1a2cff8da85c9.pdf"
        d="m172.25 199.24-.44.39-.9.97-.58.52-.73-.1-.89.52-.05.35-.6.66-.4.19.11.59-.04.8.18.57-.07.63-.68.52-.29 1.77-.27.2-.6.08-.63.36-.42.4-.43-.05-.53.66-.76.54-.2.4-.6.27-.4.36-.35.68-.56.69-.44.8-.37.22-.55-.3-1.05-.23-.94.5-.38 1.2-.43.18-.42.56-.33.07-.48.37-.44.8-.42-.05-.09.29.1.75-.37.23-.06.42-.29.63.27.49-.32.43v.42l-.26.55h-.54l-.3.4-.85.7-.42.22-.18.9-.65-.06-.7.46-.14.24.05.59.4.39-.76.6-.74 1.2-.4.49-.23.04-.16-.74-.4-.15-1 .47.22.63.33.3-.14.42-1.05.34-.37-.1-.03-.42-.93.03-.51.34-.28.02-.3.55-.2.86-.26-.03-.73-.7-.53-.28-.71.17-.06.93.19.48.4.33-4 .05-7.24.08.13-.76-.26-.87.3-.64.52-.27.34.3.57.02.09-1-.27-.81.1-.3-.54-.85.4-.84-.08-.42-.88-.58.1-.27.66-.75-.04-.25-.57-.12.23-.96-.25-.31.67-.51.28.07.2-1.43-.24-.53.32-1.2.17-.31-.1-1.1.54-.68.16-.75.46-.4.37-.51.28-.11.1-.6.77.22.13-.32-.14-.86.36-.47.56-.33-.1-.68.15-.5-.22-.32.25-.36-.1-.88.2-.55.33-.21.42.56 1.28-.02.2-.2.16-.7.69-.87.8-.41 1.15-1.14.95-.37.8.33.6-.84 1.29-.05.36-.48.46-.14.87.23.76.65.15-.5.62-.07.23-.32.08-.48.5-.42.64.4.44-.01 1.07.3.35-.18 1.4.14.2.37 2.43-.52.08-.81.16-.44-.1-.7-.5-.71-.21-.63h6.34l3.79.02h6.33z">
      </path>

      <path class="mapa-svg-estados Careiro-class" id="Careiro"
        href="https://594aee3c-e15e-44d4-b67a-780ff78cdb01.filesusr.com/ugd/b61413_e3ef3eb031a64b3c86170078be3e9e2c.pdf"
        d="m281.43 184.54-.22.65-.42 3.45-.2.15-.2.85-.03.97.13.56-.48.48-.25.71-.34.08-.07.4-.3.24.1.51-.3.23-.57-.45-1.98-.02-.36.71-.34-.05-.27 1.1.05.67.3.5v.43l-.55.72-.32-.22-.42-.76-.47.23-1.55.25-.6.44-1.73-.25-.95-.54-.52-.1-.76.46-1.3.18-.38.46-.73.1-.15.28-.63-.4-1.45-.32.16-.24 3.41-2.53v-.78l.23-.53.02-.88.3-.5.06-.75.42-.12.4-.4.87-.63.48-.85.42-.1-.52-1.44.42-.52.37-.18 1.45 1.18.33-.25.06-.62-.15-.34.38-.68-.02-.5.53-.42-.43-.47-.25-.5.55-.36.35-.47.66-.5.5-.17 2.36.05.43.32 1.33-1.32.89-.18.42.06v.81l.3.17.59-.02 1.35-.29.57.35.22-.18.62.13.27.35-.41.33-.31.88-.42-.14-.48.43z">
      </path>

      <path class="mapa-svg-estados Careiro_da_Varzea-class" id="Careiro_da_Varzea" title="Careiro da Varzea"
        href="https://594aee3c-e15e-44d4-b67a-780ff78cdb01.filesusr.com/ugd/b61413_1c5663abe2d3482482bfb2f5904937fa.pdf"
        d="m288.79 179.06-.45.5 1.32.55 1.33.48v1.96l-.28.38-.7.26-.65.36-.35.6-.8.38-.4.75-.67-.22-.4.13-.63-.12-.57.39-.16.48-.66.03-.67-.78-.75-.25-.13-.28-.68-.19-.42.22-.65-.15.47-.1.48-.43.42.14.31-.88.41-.33-.27-.35-.62-.13-.22.18-.57-.35-1.35.3-.59.01-.3-.17v-.8l-.42-.06-.89.18-1.33 1.32-.43-.32-2.36-.05.05-.08 1.12-.23 1.78-.84 1.31-.18.72-.5.15-.5.05-.89-.26-.7.84-.7.7-.35.9-.24 1.22-.06 1.77.63.96.45 1.17.12 1.57.6z">
      </path>

      <path class="mapa-svg-estados Coari-class" id="Coari"
        href="https://594aee3c-e15e-44d4-b67a-780ff78cdb01.filesusr.com/ugd/b61413_a44d7ae0f896431ba9edeb2f1e7db928.pdf"
        d="m235.7 195.63.1.32.66.6.57.36-.04.69.44.39-.55.46-.73.07-.76-.04-.46-.3-.52-.1-.3.49-.3.04-.06.66-.67.56-.13.42-.4.2-.2.36.29.25-.36.36-.65-.11-.02.4-.47.13-.54-.38-.15-.56-.66.11.04.66-.4.28-.19.54-.45-.27-.4.68-.25-.37-.43-.18-.94.13-.39.19-.12.47-1.04.06-1.36 3.3-.37.34-.74.18-.63.46-.86.14-.5.38-.26.47-.49 1.59-.52.36-.43.64-.68.66-.02.95-.25.8-.28.4-1.23.5-1.49.12-.5-.03-.87-.35-.6.13-.97-.54-.37-.03-.94.3-.56.34-.48.1-1.02.72-.78.3-.32.45-1.43.55-.2.24-.2.8-.67.84-.16.68-.28.2-.94.04-.57.32-.63.53-1.17.12-1.2.73-.69.48-.67.25-.16.65-.38.61-.05.63-.28.35-.56.17-.32-.28-1.08.26-1.18 1.24-.62.3-.32.3-.7.04-.88-.3-.76-.06-.9-.44-.97-.25h-.65l-.93.16-.32-.04-.85-.85-.52-.13-.89.67-.46.2-.32-.1-.3-.58-.56-.29-.6-.08-.58-.72-.26-.15-.49.13-.5.43-.45.1-1.36-.57-.7-.5-.55-.73-.17-.8-.29-.09-.69.54-.42-.1-.37-.59-.35-1.2-.4.1-.58.7-.64.11-.4-.09-.56-.78-.44-.2.21-1.05.63-.95.87-.44.6.13.75-.36.65.44.25-.2-.03-.68-.32-.69-.07-.58.18-.29.71-.67-.17-.5-.67-.02.2-1.07.35-.23.78-.15.92-1.4-.15-.78.08-.28.58-.52.45-.69.8-.68.15-.27.29-1.45.26-.22.47-.02.4-.23.32-.77.18-.07.61.3.57.05.53-.1.69-.6.59-.37 1.09-.86.26-.77.29-.32.79-.19.52-.54.05-.92.2-.9.44-.48.6.25.97-.26.47.11.87-.39.4-.79.26-.28.8-.19.17-.29.08-.65.38-.46.64.21.23-.16.63-.96.5-.19.28-.38.04-.76.4-.45.28-.09.74.14.8.36 1.05-.37.48.16 1.14-.52.66-1.04.24.1 1.24-.49.12-.95.87-.92.32-.12.3.25.08-1.1 1.48.03.25.7-.07.32.63.86 1.33-.03 1.43-.2.18-.29-.91-.07-.3.33-.66-.1-.8-.99.15-.38-.06-.48-.32-.2.36-.35-.7-.45-.48-.5-.6.36-.1-.51-.3-.32-.48-.02.13-.55-.43-.26-.4.17-.34-.4-.52-.1v-.58l.36-.51-.24-.5.37-.56.04-.43.79-.13-.07-.47-.42-.33-.15-.45-.3-.05-.56-.65-.45.08-.28-.44-.5-.41-.3-.58-.64-.33.39-.78-.92-.2-.16-1.23-.56-.26-.3-.44-1.01-.7-.2-.33-.1-.7.08-.46-.5-.9-.35-.33-.1-.98.42.05.89-.12.42-.34.82.1.35-.5-.02-.36-.36-.38-1.17-.2.1-.56-.3-.62.03-.36-.53-.53.06-.91-.5-.18-.04-.54-.46-.93-.2-.72.23-.45.34.16.87.07-.04-.71h.58l.26-.22.63-.11-.35 1.38.28.3 1.21.36.7.58.57.29h1.1l.7.28.47.29.1.65.2.14.05.84.3.42-.01.35.37.19.3.79.39.19.55-.13.38.7-.23 1.14.16.56-.2.3.58.77-.2.47.76.44-.08.5.17.4.4.32.24.8-.13.47.25.76.59.8.2.57.72 1.05.36-.01.2.3.38.03-.1.43.87.48v.36l.39.4.97.38.15-.28.47.4 1.5.5.4.54 1.43 1.12.53.28 1.19.23.63.45.75 1 .27.2.58.14.78-.16 1.06-.72.57-.03.2.16 3.94 2.63 3.53 2.35.05 1.19.29.4-.16.97.75.54.6.09.29.35.54.15.09.26.88-.08z">
      </path>

      <path class="mapa-svg-estados Codajás-class" id="Codajás"
        href="https://594aee3c-e15e-44d4-b67a-780ff78cdb01.filesusr.com/ugd/b61413_8b4ebf74bd5f4bbb8588b53dda741db5.pdf"
        d="M207.49 166.53v.4l-.43.67-.12.4.07.66.34.18.8-.2.78.04.7-.08.31-.24.53.16.37.64.3 1 .37.77.27 1.22-.26.72.08.37.59.18 1.1-.49.36-.36.43-.1.37-.3.68-.17.78-.72.32-.17 1.1.06 1.7-.12.37.2.43.71.33.8.39.4.53.31 1.65-.1.8-.3.72.46.89.08.53.15.25.5.08.78-.41 1.33.23.15.47-.1 1.17-.01.85.3.59.73.79.53 1.33.03.77.25.39.47.57.4.55.76.36.67.35 1 .06 1.22.16 1.03.72.35 1.64-.05.2.26.49-.17-.1-.74.14-.46 1.34-.4.75-.53.46-.73.4-.25.27.18.2.75-.2 1.25.32.74.56.34-.02.33.23.6-.12 1.2.37.39.9.27.57.32.58.57.43.12.85-.09v4l-.69.8-.74.21 1 .84.2.8-.3.09-.33-.26-.36.32-.58-.37-.2.67.4.52.66.16.2-.27.92.09-.04.38-.4.54-.23-.56-.7.34-.99-.17-.6-.52-.96-.22-.75.04-.76.2-.37-.13-.76.54-.76-.34-.75-.63-.59.4-1.04.1-.54-.24-.88.08-.09-.26-.54-.15-.29-.35-.6-.09-.75-.54.16-.96-.29-.4-.05-1.2-3.53-2.35-3.94-2.63-.2-.16-.57.03-1.06.72-.78.16-.58-.13-.27-.2-.75-1-.63-.45-1.19-.23-.53-.28-1.42-1.12-.4-.54-1.5-.5-.47-.4-.15.28-.97-.37-.4-.41v-.36l-.85-.48.09-.43-.37-.02-.21-.31h-.36l-.72-1.05-.2-.56-.6-.8-.25-.77.13-.46-.23-.8-.4-.33-.18-.39.08-.5-.75-.44.2-.47-.58-.77.2-.3-.16-.57.23-1.13-.39-.7-.55.12-.38-.19-.3-.79-.38-.19.01-.35-.3-.42-.04-.84-.2-.14-.1-.65-.47-.29-.7-.27h-1.1l-.58-.3-.69-.57-1.2-.36-.29-.3.35-1.39.52.22.42-.19.5-.89.45-.2.11-1.44.37-.3.56-.06.57.5.24.7 1.23.37.2-.02.81-.53.31.02-.03.46.35.5-.16.46.04.53-.12 1 .52.79.05.87z">
      </path>

      <path class="mapa-svg-estados Eirunepé-class" id="Eirunepé"
        href="https://594aee3c-e15e-44d4-b67a-780ff78cdb01.filesusr.com/ugd/b61413_877c0c957c814faa98f2632e2232afc7.pdf"
        d="M112.44 235.78v3.99l.22.46-.2.29-.04 1-.34.66-.08.72-.29.52.12 1.76-.22.38-.7.6-.44.98-.45.32-.6.16-.5.3.08.83.22.34-.15.53.05.6-6.15-.08-.37 1.16.38.07-.49.82-.92.02-.42-.4v-.42l-.36-.27-.26-.86-.53-.07-.02.5-.3.98-.52.23-.27.31-.47-.19-.54.9-.64.55-.53.14-.83.54-1.17 1.22-.33.27-.4-.03-1.38.54-.79.01-.44.51-.96.21-.49-.16-.33.48-.68.63-.82-.18-.37-.2-1.14.37-.25.52-.39.12-.28-.3-.3.01-.49.66-.79-.18-.83.38-.42.03-.6.26-.3.32-.5.26-5.19-.6.45-.48.53-.1.25-.46 1.12-.79.47-.63.55-.13.12-.48.58-.72.75-.37.34-.58.34-.14.27-.44v-.49l.48-.29.68-1.37.64-.26.8-.1.23-.48.53-.45.5-.07.36-.45.51-.25.4-.73.63-.83.18-.58-.03-.45.25-.23.14-.94-.07-.67.6-.52.13-.64.35-.4-.2-3.88.63.21.4-.2.14-.63.26-.45.38.15.26.35.82.26.86-.2.38.24.06.52.73.15.13.48 1.05-.17.36-.46.2.5.27-.05.28-.57.7-.27.2.44.9-.06.9.41.18-.53.55-.18.2-.49.45.44.57-.45.88.31.39-.58.42-.08.54.13.4.34.44-.09.25-.66-.03-.95.5-.6 1.18-.3.26.2.63-.1.77.17.34.4.7.12.28-.18.3-.8.5-.4 1.3-.57z">
      </path>

      <path class="mapa-svg-estados Envira-class" id="Envira"
        href="https://594aee3c-e15e-44d4-b67a-780ff78cdb01.filesusr.com/ugd/b61413_8d5d6be7d1834249a46e7e7ed8fde4c7.pdf"
        d="m109.13 250.22.54.44.29.87-.32.48.14.62-.07.4-.41.4.37.8-.45.16-.15.39.29.4-.45.53-.56 1.2.18.23-.52.67-.04.34.56.55-.25.5-.51.07-.3.48-.17.61-.56.26-.45.46-.4-.1-.46.58-.58.41-.07.35-.44.08-.11.41.25.31-.08.56-.2.2.23.83-.25 1.11L99.7 262l-8.13-.93-3.9-.45-6.24-.72.5-.26.3-.32.6-.26.43-.03.83-.37.79.18.48-.66.3-.02.29.3.39-.11.25-.52 1.14-.37.37.2.82.18.68-.63.33-.48.49.16.96-.21.44-.51.79-.01 1.37-.54.4.03.34-.27 1.17-1.22.83-.54.53-.14.64-.55.54-.9.47.19.27-.31.52-.23.3-.98.02-.51.53.07.26.86.36.27v.42l.42.4.92-.02.49-.82-.38-.07.37-1.16z">
      </path>

      <path class="mapa-svg-estados Fonte_Boa-class" id="Fonte_Boa"
        href="https://594aee3c-e15e-44d4-b67a-780ff78cdb01.filesusr.com/ugd/b61413_36684d06a1e845dc90048b0301a2815c.pdf"
        d="m171.35 161.24.52.1.26.24.18 1.23.23.43.57.04.08.8.62-.31.21-.71.71.35.19-.27 1.23.2.57-.07.23.32.38-.05.2-.43.63-.24.55.31-.27.43-.5.21.6.43-.38.78.13.41.37.03.58-.48.5.4.4.16.35-.6-.57-.14.04-.46.45-.02.56.17.03.28-.35.36.06.63.25.08.55-.23-.06-.5.25-.23.8-.22.75.22.38-.36.07-.34.4.09.1.86.34.3-.37-.04-.78-.33-.58.03-.56.35-.05.3.66-.1.72.28v.38l-.5.5-.04.24-1.02-.42-.03.36-.9.82-.67.4-.36.44-.17.49-.7.75-.56.4-1.3.1-.28-.16-.62-.73v-.85l-.13-.65-.34-.36-.77-.48-.59.36-.02.35.32.78.46.48.37.69-.33.06-.39-.3-.08-.43-1.05.36-.36-.24-1.2.15-.38.35-.34.85-.63.67-.54.2-.2.52-.12.68-.3.34-.65 1.49-.73.5-.16.53-.3.1-.18.57.07.32-.36.78.17.24-.56.45-.2.6-.23-.06-1.09.6-.56-.27-.84-.13-.35.1-.4-.11-.62.22-.49-.11-.44.16-1.08-.16v-.77l-.36-.8.5-.95-.57-.97.4-.8.52-.21.23-.61-.1-.32-.55-.55.04-.31.85-.28.95-.48.47-.9.9-.02.34.45.42-.18.34.27.91-.31.15-.44-.69.03-.8-.58v-.22l.65-.6.07-.68-.68-.11-.44-.52-.12-.36.03-1.32-.2-.5-.6-.24-1.12.17-.9-.02-.68-.38-.73.2-.13.6.24.8.37.87-.06.66.33.6-.18.96-.96.72-1.19.63-.57-.02-.72-.6-.54-.13-.39-.25h-.47l-.52.48-.18.46-.34.21-.6.01-1.17-.4-.17-.53.17-.54-.27-.5-.43-.17-.87.3-1.25-.45-.2-.58-.09-.9-.5-.69.46-.5.47-.7.41-.27-.3-.59-.58-.76-.95-.22.54-.67.01-.46-.49-.15-.69-1.03.45.06.35.35.57.16.4.3.1.42.47.12.78-.1.5.37.46.11.66-.3 1.27-.1.84-.38 1.13-.17.57-.35.7-.08.13-.74.3-.08.84.29.74-.28.9.01.38-.59.73-.17.52-.77-.17-.7.35-.8 1.04-.8.6.1.37 1 .84.84.61.22.32-.47.85-.07.24-.17 1.18-.53.26.26.04.56-.36.18.2.37 1.4.25.58-.07.3.23.07.46.31.5z">
      </path>

      <path class="mapa-svg-estados Guajará-class" id="Guajará"
        href="https://594aee3c-e15e-44d4-b67a-780ff78cdb01.filesusr.com/ugd/b61413_986ce61ba1bb43b0a25c0238661b6b31.pdf"
        d="m64.4 248.88.01 1.7-.45 1.15-.49.25-.43-.04-.75.75.3.47.14 1 .06 1.48-.57.48.01.85-.15.42.23.3-7.34-.86-5.58-2.02-6.94-2.52-7.87-2.84.52-1.65.75-.72-.3-.35.05-.48.93-.3 1.06-.12.57.22.52-.28.31.13.62-.1.16.3 1.51.08 1.08-.12.67-.4.7.07.48-.11.94.5.32.54 1.98.9.61-.05 1.2-.5 1 .05.55-.36.62-.13.4-.6.8-.59h.56l.23.2.16.6-.6.2-.02.85.26.16.28.55.63.85.31.24.8.04.64.33.82-.09.2-.18.76-.08.7.97.4.27-.3.38 1.13.05.58-.48.9.2.43-.18.56-.85 1.65-.12z">
      </path>

      <path class="mapa-svg-estados Humaitá-class" id="Humaitá"
        href="https://594aee3c-e15e-44d4-b67a-780ff78cdb01.filesusr.com/ugd/b61413_feb9bd65e9454493a0fbc0d6ddd7f66c.pdf"
        d="m243.8 280-.05.2-.57.12-.73-.15-.43-.76-.3-.1-.17-.43-.77-.02-.42.19-.47-.13-.54-1.1.1-.38-.4-.41.13-.27-.63-.62.46-.3-.16-.52-.8-.14-.71-.27-.45.53.27.42-.18.17-.82-.51-.06-.4.23-.41-.2-.83-.51-.41-.05-.84.15-.84-.41-.37-.72-.04-.72-.63-.24.1-.7.7-.37-.47-.4-.8.1-.11-.51-.62h-.26l-.97-.76-.1-.52-.46-.45.24-.5-.34-.93-.58-.42-.34-.42-.74-.34-.42-.02-.41-.54-.6-.33-4.45.02h-3.7l-5.2-.01-.04-.58.07-.87-.25-.36.54-.45.82-.15.54-.82 1-.8 1.07-.18.53-1.34-.28-.47-.41-.11-.06-.58.34-.14.14-.55.3-.1.07-.42.47-.1.53-.82.17-.62-.37-.1-.13-.58.85-.03.4.1.32-.25-.07-.6-.88-.24.22-.25-.25-.86.4-.62-.37-.33.02-.4-.36-.01.1-1.15.3-.8 1.4-.5.19-.22-.12-.48.47-.3.35.03.66-.9-.41-.4.12-.35-.11-.86-.2-.42 2.04-.03.7-1.08.7-1.68.46-2.4.32-.57.55-.6.56-1 .5.05.54-.31 1.43.06.12.39.53.19.28-.15.62.23.54-.35.45-.5-.11-.36.5-.1.35.53.58.05.33-.6.72-.42.34.05.44-.21.32-.4.65-.04 1.02.2.3-.47-.05-.34.18-.66.69-.52.72-.38.6-.18.5.07.67.55 2.12.63.64.03.4-.16.9.09.26-.17.25-.6.07-1.07.27-.18.58.57.03.35.5.5.06.53-.98.15-.32-.1-.4.2-.11.33.42.42.26.53.4.32-.41.24.39.97.32.04.61-.42.55.2-.86 1 .98.44.12.75.43.79-.48.69.13.47-.18.26.26.63.7.26-.78.37.12.6-.67.55.12.34-.15.53-.33.4-.48-.15-.28.18-.02.66-.33.08-.09.48-.93.65.17.86-.16.62-.33-.08-.12-.38-.7.42.05.5-.42.74-.4.27.1.24-1.27 1.06.58.36.15.43.45.45 1.07-.06.22.46.71.12.2.43-.35.82.57.6-.32 1-.66 1.06.07.35.36.4.15.97.5.2-.04 1.14-.32-.2-.23.96-.32-.08-.9.99-.16.49-.58.09-.23.68h-.4l-.6.48-.48 1.66.87.42.54.5.14.35.48.6.06.6.47.9-.08.86-.27.3.2.27.25 1.24-.6.88-.2.46-.48.6.2.3-.32 1.48v.46l.18.69.28.39-.65.82.05 1.04.46.92.4.27.53.85z">
      </path>

      <path class="mapa-svg-estados Ipixuna-class" id="Ipixuna"
        href="https://594aee3c-e15e-44d4-b67a-780ff78cdb01.filesusr.com/ugd/b61413_8f51235c1d224abda4c1c3a81b23c07a.pdf"
        d="m76.25 259.3-4.67-.54-5.3-.62-3.96-.46-.23-.29.15-.42-.01-.85.57-.48-.06-1.48-.14-1-.3-.47.75-.75.43.04.49-.25.45-1.16-.02-1.69.57.04.55-.16.2-.63-.2-.58.3-.43.5.15.29-.4 1.25.17 1.1-.34-.12-1.04.87-.29.17.26.45-.09.26-.54.32.04.87.8-.25.36.31.38.6-.38.16-.44.58.43.32-1.53.31.07.3-.34.6.2.3-.37.1-.53.64-.42.42-.47.12-.43.63-.94.76.16.34.53.6.2.2-.2.81.11.16-.32.66-.04.25-.22.46.15-.02-.47.24-.27 1.72-.25.32.08.8.81.26.42.26-.26.65.36 1.3-.34.21-.28.11-.62.73-.04.51-.3.27-.38.6-.36.2 3.87-.35.41-.14.64-.59.52.07.67-.14.94-.25.23.03.45-.18.58-.64.83-.39.73-.5.25-.38.45-.49.07-.53.45-.23.48-.8.1-.64.26-.68 1.37-.48.3v.48l-.27.44-.34.14-.34.58-.75.37-.58.72-.12.48-.55.13-.47.63-1.12.8-.25.44-.53.11z">
      </path>

      <path class="mapa-svg-estados Iranduba-class" id="Iranduba"
        href="https://594aee3c-e15e-44d4-b67a-780ff78cdb01.filesusr.com/ugd/b61413_824a8b7776334c60a0d56d5b6a722f12.pdf"
        d="m264.07 173.2.9.72.07.3.65.62.21.38.33.17.6.66.22.6.34.29.42.04.48.29.3.39-.08.33.63-.04.27-.22.41.3.85.06.3-.08.67.13.29-.37.39.33.49-.28h.56l.5.22.59.57.44.06.56.34.6-.26.08.42h.59l.95 1.03.59-.26.17-.5.65-.65.26.7-.06.88-.15.5-.72.5-1.3.18-1.79.84-1.12.23-.87.1-1.48-.84-.69-.12.78-.64-.17-.62-.23.12-.73-1.32v-.61l-1.49-.26-1.32-.02-.26.14-.67-.16-.5.26-1.23.28-.6-.74-.95-.19-.68.1-.78-.6-.1-.28-.49-.08-.25.14-.38-.54-.43-.33-.64.04.11-.5-.02-.66.3-.22-.4-.73.01-.37.85-.5.4-.45.7.16.2.3.43.02.44-.18z">
      </path>

      <path class="mapa-svg-estados Itacoatiara-class" id="Itacoatiara"
        href="https://594aee3c-e15e-44d4-b67a-780ff78cdb01.filesusr.com/ugd/b61413_46392bdd0f994faf8a5936c18f32fb66.pdf"
        d="m292.37 167.82.44.05.14.27.72.7.55.21.05.65.39.27-.1.62.36.5.43-.16-.03 1.42.44.1.1-.32.36-.09.59.38-.2.4.26.17.65 1.11-.23.35.12.28.99.47 1.24.86 1.64.84.6.1.76-.36 1.27-.34.5-.36 1.25.41.56 1.18-.25.34.18 1.03 1.04-.63 1.28-.46 1.2-.84.14.33-.09 1.25-.34.8.01.32h1.96l.28.48.02 1.07-.1.54-.32.16-.35.58-.75-.05-.47.4.06.83-.13.68v.77l-3.34.06-.24 1.1.61.37-.45 1.19.03.42-.46.03-.49.92-.52-.39-.22.5-.73.33-.14-.7-.62-.49-.1-.3-.44-.4-.48-.14-.2-.25-.44.1-.14.5-.43.13-.38-.35-.07-.53-.36-.34-.46-.09-.68.41-.98-.18h-.52l-.45.24-.36-.1.24-.5-.19-.64.46-.88.51-.54.52-.33.58-.07.28-1.15-.73.38h-.43l-1-.74-.59-.83v-.3l-.63-.67-.62-.24-.4.1-1.57.6-.53-.06-1.45-.72-1.33-.48-1.32-.55.45-.5.12-.13 1.3.15.64.14.62.32.21-.4-1.19-.5-.75.05-.65-.45-.57-.62-.55-.3-.47-.1-.42-.34-.8-1.02 1.23-.79.38-.68.55-.38.37.27.02-1.05.87-1.08.7-.42.1-.29.58-.43.01-.85.64-.76-.15-.74.61-.45z">
      </path>

      <path class="mapa-svg-estados Itamarati-class" id="Itamarati"
        href="https://594aee3c-e15e-44d4-b67a-780ff78cdb01.filesusr.com/ugd/b61413_ba92fe2fcfe5438b82f9ad848ed889ac.pdf"
        d="m145.03 250.1-.17.62v.72l-.05.8-.35.58-.74.42-.6.93-.24.16-.52-.2-.24-.76-.76-.44.11-.4-.57-.81-1.26-.1-.24-.15-.53.06-.8.33-.34-.2.48-.34-.1-.55-.35-.77-.23-.2-1.52-.07-.73-.6-.4.1-.23.39-.66.04-1.02.39-.09-.38-.44-.1-.55.19-.7.45-.82-.33-.46.27-.74.09-1.23-.4-.54.08-.07.53.26.52-.28.49-.74-.02-.15-.42-.42-.08v-.32l-.57-.4.1-.3-.22-.34-.9-.67-.56-.03-.73.35-1.36-.4-.6.16-1.1-.06-.38-.25-.68-.22-.59-.36-.37.3-.28-.04.36-.68-.49-.1-.22.37-.73-.42-.59-.18-.09-.96-.59-.01-.48-.28-.77.84-.88.34h-1.32l-.52.26-.44.63.02.22-.85.45-.43.1.06.4.51.3-.04.44-.5.18-.1.4-.55-.44-.05-.6.15-.53-.22-.34-.08-.83.5-.3.6-.16.45-.32.44-.97.7-.61.22-.38-.12-1.76.3-.52.07-.72.34-.66.04-1 .2-.3-.22-.45v-4l.4-.97.5-.4.26.02.93.9-.02.8-.36.57.35.34.64-.48.41.23.83-.81.35-.03.96.5.32-.16.42-.54 1.12.3.52-.24.4.96 1 .14.24-.63.71.22.5.42.83-.33.54-.03-.05-.6-.29-.28.16-.46-.14-.4.9-.66.37-.11.13-.48.52-.48.51-.23.6-.03.4-.27.97-.25.14-.26.92-.72.07-.44.43-.05.7-.54 7.24-.08 4-.05-.13.5.13.43-.17.8.23.43.36.22.42 1.08-.8.27-.17.53-.36.3-.07.5-.58.4-.37.55-.47 1.29.11.27-.4.85 1-.18.54.69.66.22.36-.21.21.35 1.13-.28.8-.3.4.1.98-.7.38.3.36-.3.68-.17.4-.73.68-.47.47-.17.47.06.51-1.1.38-.41 1.1.16.97-.17.83.97 1.02-.2 2.2.59.68.52.25.53.27.06.28.43.63.06 1.28.34.9.58 1.5.24.2.2.8-.15.57.67h.32l.53.54.69-.3-.06.46-.47-.07-.31.39-.31.94-.42.2-.85.19-.35-.13-.4.17-.58-.2-.9.74-.03-.24-1 .4-1.06.37-.62-.2-.4.38-.36-.17-1.28-.04-.45.18-.28-.36-.8-.27-.77-.52-.4.46-.94.37-.56-.31-.26.4-.28-.21-.3.6-1.42.33-.47-.22h-.7l-.32-.25-.65.02-.02.7-.28.15-.38.52-.1.45.15.67-.56.83z">
      </path>

      <path class="mapa-svg-estados Itapiranga-class" id="Itapiranga"
        href="https://594aee3c-e15e-44d4-b67a-780ff78cdb01.filesusr.com/ugd/b61413_4c32d2f0af654a97ae42f2167b07d8fa.pdf"
        d="m314.76 169.44-.83.16-.5.97.43-.2.25.6-.3.15.17.47-.43.27.33.3.38-.08-.73.69-.58.16-.86.02-.54.24-.7.68-1.22-1.93-.15-.52.04-.7-.51-.58-.38.03-.32-.41-.71-.1-.18-.17-.58.24-.76-.05-.82.6-.5-.07-.27.17-.58.72-.42-.02-1.08-.4-1.06-.12-.27-.24-.38.08-.56-.54-.07-.28-.53-.14-.53-.36-.4.17-.83.08-.53-.52-.34.29-.8-.26-.26-.3-.51.05-.42.25-.18.56-.52-.34-.55-.21-.72-.7-.14-.27-.44-.05-.32-.58-.4-.24-.74-.03-.2.23-.48-.05.09-.58 1.75-1.09.7-.79.42-.77.48-.38.3-.06-.16-.5.43-.22.68.4.62-.07.8.41.1-.32.79-.46.18.33.38.11.42-.25.1.48.87-.03.1.43.43-.2.3.34-.32.43.3.4.6-.07.44-.42.8-.44.3-.05.79.47 1.45-.41.58.32.77.13.16.3.55.06.42 1.08.2.2.52-.07.24-.33.4.14.07.6-.47.65.63.4.37.46.3.09.52.87.44.3.72.32.64.39 1.1.38.55-.1.2-.2-.1-.55 1.09-.36.44-.06.64.21z">
      </path>

      <path class="mapa-svg-estados Japurá-class" id="Japurá"
        href="https://594aee3c-e15e-44d4-b67a-780ff78cdb01.filesusr.com/ugd/b61413_4b21bcf8690648ac8ffa578ba5c37483.pdf"
        d="m142.22 150.04.58.97-.04.52.19.28 1.45.7.66.02.89-.2.79.43.43-.6.45-.23 1.01-.15.57.18.7-.2 1.12-.07.73-.4h1.07l.77.22.58-.06.97.34 1.16-.04.6-.16.77.05.66.39h.58l.84-.4.48-.53 1.4-.62.51-.1.78-.44.44-.49.63.02.54-.18.41.28-.15.85.47.53.51.1.51-.36.82-1 .86-.35.8-.54.9-.33 1.7-.16v12.92l-.3-.06-.32-.5-.07-.46-.3-.23-.59.07-1.4-.25-.19-.37.36-.18-.04-.56-.26-.26-1.18.53-.24.17-.85.07-.32.47-.6-.22-.85-.85-.37-.99-.6-.1-1.04.8-.35.8.17.7-.52.77-.73.17-.38.6-.9-.02-.74.27-.85-.29-.29.08-.13.74-.7.08-.57.35-1.13.17-.84.38-1.27.1-.66.31-.47-.1-.49-.38-.78.1-.48-.12-.1-.43-.39-.29-.57-.16-.35-.35-.45-.06-.66 1.07.15.42-.75.44-.22.4-.32.01-.96.57-.43.14-.55.42-.38.05-.3.36-.22 1.45-1.05.33-.18 1.2-.48.44-.46.07-.06.28-.8.48.13.44-.3.5-.07.41-.7-.02-.49.44-1.29-.76-.54-.04-.42-.35-.3.37-.83-.43-.72-.98.08-.67-.13-.3-.55.12-.35-.32-1.14.2-.28.32h-.43l-.54-.54-1.12-.2-.3.42-.23.74-.34.35-.8.06-1.58-.46-.95.28-.3.83-.88-.17-.4.51-.32.64-.88.4-.59.3-.69.54-.69.02-.46.41-.84-.2-.83.13-.39.25-.53-.47-.45-.07-.45.71-.5.22-.5-.9-.4-.24-.18-.47-.43-.34-.39.14.03-.53-.19-.44v-.68l-.39-.63-.6-.24-1.24.4-.15-.48-.5-.66-.53-.36h-1.17l.18-.7-.69-.3-.64-.45-1.88-.16 1.4-7.77.86-4.95.57-3.34-.08-.67.4-.63-.04-.72.13-.53.53-.29-.17-.66-.03-.92-.35-.7.3-.98.01-.5.27-.25-.05-.53-.42-.54.01-.6-.34-.23.4-.64-.52-.04-.23-.55-1.13-.8.07-.63-.27-.43-.62-.35.25-.34-.26-.38-.67-.55-.19-.67.66-.85.21-.6-.55-.89.2-.57-.38-.48.07-.48-.6-.54-1.29-.49-.38-.26-.64-.7-.85-.35-.38-.62-.84.06-.54-.32-.25-.44-.47-.38-.59-.89-1.06-.84v-.5l.28-.6-.09-1.83v-1.58l.85.16.2.23.05.92.57.26.18 1.14.63.42.4.62h.3l.33-.36.62-.08.26-.66.42-.06.3.37.02.88.4.34h1l.53.48.76.46-.06 1 .06.58.51.42.57.07.98.58.03.52 1.36.11.61.57.36.68.8.22.24.36.45.2.9-.17.67.2.4.27.72-.08.23-.32.73-.28.54.06.33-.32.54.06.38-.2.74.13.3.24.72.24.23.25.51.04.72.39 1.46.37.52.85.4.3.4.58.03.52.45.46.85.36.77.22.18-.1 1.2.1.38-.4.83-.1.44-.35.76-.33.04-.2 1.03-.2.71-.04.42.1.07 5.8.01 8.56.6.29.67-.02.94-.43.75.09.54.19.5.39.52.09.47-.16.82-.47.55.09 1 .62.58.1z">
      </path>

      <path class="mapa-svg-estados Juruá-class" id="Juruá"
        href="https://594aee3c-e15e-44d4-b67a-780ff78cdb01.filesusr.com/ugd/b61413_9cff15cb20c247c3b7b7dd05651fa162.pdf"
        d="m173.68 196.38.07.66-.65.46-.23.38-.17.77.29.56-.21.2-.52-.17-.9.05-6.33-.01-3.79-.01-6.34-.01-.02-.6.32-.54-.38-.4-.46-.1-.77-.5-.7-.71-.25-.12-.28-1.22-.55-.42-.55-.14-.49-.64-.56-1.48.37-.44.72.9 1.63.56.74.42.4-.62-.17-.54-.42-.54.42-.65.31.1-.1-2.01-.23-.7.4-.58.45-.35.32-.53.22-.68-.07-.27-.56-.31-.9-.1-.54-.34.02-.8-.14-1.2.2-.4.54-.36-.05-.56.5-.24.46-.42.12-.45-.05-.58.54-1.41.4-.35.5-.2.95.13.53.46.64-.27.78.14 1.02-.4.65.05 1.08.16.44-.16.5.1.6-.21.41.12.35-.11.84.13.56.28 1.1-.61.21.07.21-.61.56-.45-.17-.24.36-.78-.07-.32.18-.56.3-.11.16-.52.73-.51.64-1.5.31-.33.11-.68.21-.51.54-.21.63-.67.34-.85.38-.35 1.2-.15.36.24 1.05-.36.08.44.4.29.33-.06-.37-.7-.46-.47-.32-.78.02-.35.59-.36.77.48.34.36.13.65v.85l.62.73.27.16 1.3-.1.57-.4.7-.75.17-.5.36-.43.66-.4.9-.82.04-.35 1.02.42.45.05 1.03 1.54-.1.76-.9.56-.8.18-.38.3-.12.38.17.54.68.99-.14.8-.62.62-.8.34-.4-.32-.35.22-.5-.16-.61.45-.5.08-.52-.3-.26.33-.2.68-.45.15-.3.3-.36.8-.51.92-.44.44-.02.32-.34 1.09-.2.26-.68.23-.53 1-.13.48-.52.65-.03.64-.84.86-.06.5-.37.78-.63.45-.13.5.02.9-.14 1.2.12.89-.11.77.53.05.22.37-.54.6-.12 1.28.1.79.58.97-.12.72.6.64.26.6z">
      </path>

      <path class="mapa-svg-estados Jutaí-class" id="Jutaí"
        href="https://594aee3c-e15e-44d4-b67a-780ff78cdb01.filesusr.com/ugd/b61413_185c5f89486e4a86a5e698d02ae8340c.pdf"
        d="m160.81 178.84-.65-.05-1.02.4-.78-.14-.64.27-.53-.45-.95-.12-.5.19-.4.35-.54 1.4.05.58-.11.45-.46.42-.5.24.05.56-.54.37-.2.4.14 1.2-.02.8.53.34.9.1.57.3.07.27-.22.68-.32.53-.46.35-.4.58.24.7.1 2.01-.31-.1-.42.65.42.54.16.54-.4.62-.73-.42-1.63-.56-.72-.9-.37.44.56 1.48.49.64.55.14.55.42.28 1.22.24.12.7.72.78.5.46.1.38.4-.32.54.02.6.2.62.52.72.09.7-.16.43-.08.81-2.42.52-.21-.37-1.4-.14-.35.2-1.07-.32-.44.01-.63-.4-.51.42-.08.48-.23.32-.62.08-.15.5-.76-.66-.87-.23-.46.14-.36.48-1.3.05-.58.84-.81-.33-.95.37-1.15 1.14-.8.41-.7.87-.14.7-.21.2-1.28.02-.42-.56-.32.21-.2.55.09.88-.25.36.22.32-.15.5.1.68-.55.33-.36.47.14.86-.13.32-.77-.22-.1.6-.28.11-.37.51-.46.4-.17.75-.54.7.1 1.08-.17.31-.32 1.2.24.53-.2 1.43-.28-.07-.67.51.25.31-.23.96.57.12.04.25-.66.75-.1.27.88.58.09.42-.41.84.55.85-.11.3.27.82-.1 1-.56-.01-.34-.31-.52.27-.3.64.26.87-.13.76-.7.54-.42.04-.07.44-.92.72-.14.26-.97.25-.41.27-.6.03-.5.23-.52.48-.13.48-.37.11-.9.67.14.4-.16.45.29.28.05.6-.54.03-.83.33-.5-.42-.71-.22-.25.63-1-.14-.4-.96-.51.25-1.12-.3-.42.53-.32.16-.96-.5-.35.03-.83.81-.41-.23-.64.48-.35-.34.36-.57.02-.8-.93-.9-.27-.02-.5.41-.4.97-1.4-.07-1.3.56-.5.4-.31.81-.28.18-.7-.12-.34-.4-.77-.18-.63.1-.26-.2-1.18.3-.5.61.03.95-.25.66-.43.1-.41-.35-.54-.13-.42.08-.4.58-.87-.3-.57.45-.45-.45-.2.5-.55.18-.17.53-.9-.41-.9.06-.2-.44-.71.27-.28.57-.27.04-.2-.5-.36.46-1.05.17-.13-.48-.73-.15-.06-.52-.38-.24-.86.2-.82-.26-.26-.35-.37-.15.13-.88.57-.48.42-.73.68-.26.14-.28.72-.24.3.07.43-1.26.55-.25.2.29.56-.22.32-.34.47-.14.56-.4h.28l.47-.4.36-.12.89-1.6-.2-.41.27-.7.28-.38.3-.1.94-.8.49-.84-.26-.42-.01-.6.24-.32.34-1.36.43-.44.6-.13.33-.9v-.7l-.28-.4.07-.33.59-.14.05-.23-.25-1.11.78-.84-.6-.95-.3-.65-.43-.15-.08-.44.4-.25 1-.23 1 .13.2-1.11.7-.4.75-.11.17-.31.79-.06.93-.54.48.2-.16.36.5.1.25-.44.04-.74.2-.5.72-.35.38-.8.54-.8.07-.68-.2-.37.3-.28.53.46.49-.14.28-.3.49-1.04.45-.45.14-.5 1.07-.85.72-.16.28-.41.06-.62.24-.31.47.07.54-1.01.14-.8.32-.42.46-.33.2-.95-.01-2 .1-.78.2-.4 1.23-.32.1-.92-.26-.73v-.44l.54-1.08.18-.72.37-.23.17-.41.39-.17.36-.63.39-1.25v-.47l-.35-.28-.07-.43.33-.5-.21-.4.22-.9-.1-.74.96.05.2-.73.27-.1.89.03.48.1.76-.27.4-.54.4-.22.78.69.47.62.89.56.19.36.78-.23.34-.7.86.06.5-.33h.4l.5-.24.69.39.36.8.26.17 1.35-.11.27-.2.6-.07.37-.25-.03-1.7.22-.73.26-.15-.05-.54-.33-.1-.28-.36.3-.73.02-.46-.7-.5.09-.4 1.23.1.53.2.92-.15.37-.3h.42l.39-.43-.1-.56.3-.27.05-1.38.7-1.97.04-.6.4-2.01.2-.45.22-.67.57-.53.85-.15 1 .83.5-.5.29-.42h.4l.64-.3.72-.08.39.4 1-.23h.57l.18-.34.62.43h.26v-6.03l.63.28.2.55.13.89.39.77.63.07.3-.14.56-.98.87-.3.43.17.27.5-.17.54.17.53 1.16.4.6-.01.35-.21.18-.46.52-.48.47-.01.39.25.54.13.72.6.57.02 1.19-.63.96-.72.18-.95-.33-.61.06-.66-.37-.87-.24-.8.13-.6.73-.2.68.39h.9l1.12-.16.59.24.2.5-.02 1.32.12.36.44.52.68.1-.07.69-.66.6v.22l.8.58.7-.03-.15.44-.91.3-.34-.26-.42.18-.35-.45-.9.02-.46.9-.95.48-.85.28-.04.3.55.56.1.32-.23.6-.53.23-.4.79.58.97-.5.95.36.8z">
      </path>

      <path class="mapa-svg-estados Lábrea-class" id="Lábrea"
        href="https://594aee3c-e15e-44d4-b67a-780ff78cdb01.filesusr.com/ugd/b61413_2a34bc243a884450b54e9493531ee24b.pdf"
        d="m188.37 248.35 4.67.04h3.6v.57l-.16.5-.01.61.44.83.14 1.42-.2.43.5.47-.19.68.17.71.34.1.28.37.07.64-.26.78.1.46.81.2.16.34.45.24.27.41-.17.54.32.68-.52 1.23.25.6-.44.7-.1 1 .4.57.03.74.35 1.29-.09.62.2.33-.15.84.14.35-.24.77-.63.5-.4.55-.33.83-.35.18-.04.89-.15.87-.28.36-.19.6.1.29.76.57.08.86-.26.35.43.3.64.72.54-.14.25.15.24.66.43.57.48.35v.27l-1 .35-.38.8-.2.18-1.06-.46-.48.15-.19.7-.28.32.17.67-.1.26-.89.44.06.67-.16.37-.4.13-.55-.18-.53.15-.2-.38h-.55l-.3.34-.54.14-.29-.46-.53-.16-.56.15-.55.32-.42.56-.4-.01.02.55-.43.89.36 1.69-.29.63-.47.65-.4-.01-.26.22-.62 1.24-.32.48-.43-.02-.2.43-.94.38-.76-.35.2-.73-.4-.18.15-.54-.36-.62-.05-.54-.62-.38-.42.1-.65.5-.63.3-.15.26-.46.02-.3.27-.28-.31-.54-.18-.13 1.19-.15.39.23.33.2.67-.43.21h-.83l-.8-.78-.7-.22-.95.35-.15.24-.52.07-.03.87-.26.13-.6.98-1.24.4-.32-.41-.12-.57-.4.03-.59-.79-.66-.16-.24-.54-.68-.6-.57-.17-.7-.03-.3.28-1.15-.17-.88.45-.55-.15-.68.06-.29-.32-.54.03.11.34-.4.1-.2-.3-1 .1-.6-.34-.1.26.32.28.13.47-.06.64-.65.58-.18.37-.99.84-.1.56-.64.18-.26.26-.6.27-.42-.15-.26.28-1.07.6-.13.34-.59.4-.58.07-.3-.13-.1.67-.52.48-5.74-2.52-3.37-1.47h0l.34-.49.4-.93-.04-.67-.16-.55.33-.94-.02-.98-.62-.33.28-.48.2-.67-.1-.64.17-.5-.24-.39.16-.55.5-.34.32-.92h.56l.18-.57.48-.22-.42-.3-.08-.28.5-.24.54.02.2-.39.57-.2.26-.97-.3-.3-.12-.52.34-.59-.99-1.26v-.57l.35-.42.17-.55.45-.15-.19-.95.66-.64.05-.74 1.9-.63.43-.27v-.6l.3-.42-.25-1.1-.24-.26.21-.84.3-.26.02-.4.52-.32.32-.47-.09-.4-.36-.27.13-.78.26-.27-.08-.85-.29-.55.17-.78.46-1.12.56-.65.06-.57-.33-.19.72-.6.51-.16.44-.42-.1-.37.46-.04.26-.62 1.4-.44-.18-.39.44-.23.57.04.25-.22.11-.5.35-.04.18.52.25.02.15-.57.48-.24.12-.34 1.21.1.5-.19.12-.4-.18-.88-.78-.09-.15.34-1.26.21-.3-.26-1.2-.15-.95-.56-.66-.26v-.3l-1.14-.89-.29-.55-.52-.05-.14-.42-.4.03-1.13-.96-.84-.32-.17.06-.37-.7.28-.35-.39-.85.02-.22-.57-.25-.05-.45-.58-.1-.05-.75-.63-.65-1 .28-.24.48-1.22.14-.96.3-1.1 1.4-.42.37.15.47.06.88-.19.41-.63.2h-1.03l-.47-.48-.56-.23v-.72l.17-.62.4-.14.41.14.7-.57-.05-.29 1.17-.87-.03-.42.67-.53.36.18.27-.47.85-.05.14-.7 1.3.02.35-.24.88.4.65-.06.84.52.25.56.64.3.36.44-.12.4.74.52.14.42.28.12.47-.3.25.33.62.4.57-.18.7.15.44.35-.08.65.5.36.97-.05.21-.56.33-.2.5.28.57.67h.33l.31-.47.6.4h1.16l.16.23.54-.02.54.22.2.38.71.43.61-.35.61-.13.72.7.43.11.56-.42.93.16.55-.39h.54l.41-.37 1.45-.39.8.27h.31l.66-.49.04-.34.7-.26 1.87.71.83-.34 1.1.33.41-.2.25.5.65.14.75-.14.57-.46.46-.06.56-.35.2.13.8-.72 1-.3 1.53-.73.25-.54z">
      </path>

      <path class="mapa-svg-estados Manacapuru-class" id="Manacapuru"
      href="https://594aee3c-e15e-44d4-b67a-780ff78cdb01.filesusr.com/ugd/b61413_68c334700d0d4cbe86fea616a93aec21.pdf"
        d="m260.04 174.34.4.73-.3.22.03.66-.11.5.64-.04.43.33.38.54.25-.14.48.09.1.28.79.6.68-.1.95.19.6.74 1.23-.28.5-.26.67.15.26-.14 1.32.02 1.49.26v.6l.73 1.33.23-.12.17.62-.78.64h-.72l-1.8 1.07-2.52 1.45.2.72-.15.35.17.54-.25.64-.45.73.08.27-.41.77-.14.54-.25.17-1.21.16-.54.2-1.22.12-.37.42-.4.14-.34-.24-.61.1-.75.27-.52.7-.31-.48-.9.03-.7-.27.24-.3-.15-.56.02-.56-3.28-.09-1.38-1.3.78-.4.69.08.68-.07-.04-1.04-.22-.12.02-.6 1.6-.1.25-.96.82-.56.38.03.7.73.3-.24-.01-.94-.26-.5-.38-.2-.08-.48.28-.47-.02-.43-.34-.26-.56.01-.54-.19-.82-.1-.98-.57-.64-.13-.03-.88-.5-.56-.03-.87-.18-1.13-.37-.19-.47-1.96-.38-.25-.12-.38-.82-.58v-.46l.6-.46.8.01.02-.5.6.22.98-.1 1.1.02.13.5.39-.09.99.38.38.4.52.12.95-.02.79.68.28.55z">
      </path>

      <path class="mapa-svg-estados Manaquiri-class" id="Manaquiri"
        href="https://594aee3c-e15e-44d4-b67a-780ff78cdb01.filesusr.com/ugd/b61413_5584b107b6714776a46f31862c5cfbb6.pdf"
        d="m271.18 181.75.69.12 1.48.84.87-.1-.05.08-.5.18-.66.5-.35.47-.56.36.25.5.43.47-.53.42.02.5-.38.68.15.34-.06.62-.33.25-1.45-1.18-.37.18-.42.52.52 1.44-.42.1-.48.85-.86.62-.4.4-.43.13-.06.75-.3.5-.02.88-.23.53.01.78-3.4 2.53-.17.24-.54-.52-.99.32-.54-.7-.67.08-.2-.58-.4-.03-.2-.32-.36-.01-.37.7-.39-.01-.48.23-.6-.16-.56.27v-2.93l.47-.3.24-.34.63-.36.48-.55.18-.4.1-.76.52-.7.75-.27.61-.1.34.25.4-.14.37-.42 1.22-.12.54-.21 1.21-.16.25-.17.14-.54.41-.77-.08-.27.45-.73.25-.64-.17-.54.15-.35-.2-.72 2.52-1.45 1.8-1.07z">
      </path>

      <path class="mapa-svg-estados Manaus-class" id="Manaus"
        href="https://594aee3c-e15e-44d4-b67a-780ff78cdb01.filesusr.com/ugd/b61413_ce9ac68eee234182bb479a1bc0a7b9f7.pdf"
        d="m277.44 160.8.02.4-.5 1.75-.21.4-.12 1.12.1.8.29 1.33-.2.93.04.86h.6l1.03.5-.16.52.14.27.49-.1.18.73.54.46-.04.56.75.35.03.62.29.3-.06.28.64.48.4-.14.38.63.4.4-.22.32.39.72.77.09.45.3 1.02-.02.84-.17.55.37.8 1.02.42.34.47.1.56.3.57.62.65.45.75-.05 1.19.49-.21.4-.62-.31-.64-.14-1.3-.15-.12.13-.57.18-1.57-.61-1.17-.12-.96-.45-1.77-.63-1.23.06-.9.25-.7.35-.83.7-.65.66-.17.49-.6.26-.94-1.03h-.6l-.07-.42-.6.26-.56-.34-.44-.06-.58-.57-.51-.22h-.56l-.5.28-.38-.33-.3.37-.66-.13-.3.08-.84-.05-.41-.31-.27.22-.63.04.08-.33-.3-.4-.48-.28-.42-.04-.34-.28-.22-.61-.6-.66-.33-.17-.21-.38-.65-.62-.07-.3-.9-.71-.82-5 .19-.97.32-.54.43-.11.1-.3-.44-.55.58-.25.05-.3.67-.4-.3-.45.22-.22-.08-.43.22-.72-.44-.4-.4-.54.69-.3.64-.74-.32-.4.25-.6h.27l.54-.5.4-.84 1 .07.7.26.4-.02 1.13-.35.08-.14.97-.6.3-.04 1.05-.5-.3.6.55.5.6.3.5.01.99.67 1.02.32.13.3.75.37.47.07z">
      </path>

      <path class="mapa-svg-estados Manicoré-class" id="Manicoré"
        href="https://594aee3c-e15e-44d4-b67a-780ff78cdb01.filesusr.com/ugd/b61413_6a4e919162ec4b89a16f3fd1d4714d0c.pdf"
        d="m247.16 276.9-.5.13-.13.5-.45.43h-.56l-.4-.27-.22.12-.04.7-.31.43.02.88-.76.17h-.25l-.53-.85-.4-.27-.46-.92-.05-1.04.65-.82-.28-.39-.2-.69.02-.46.32-1.48-.2-.29.48-.6.19-.47.6-.88-.25-1.24-.2-.27.28-.3.08-.85-.47-.9-.06-.6-.48-.6-.14-.36-.54-.5-.87-.42.48-1.66.59-.48h.4l.24-.68.58-.09.15-.49.9-.99.33.08.23-.96.32.2.04-1.13-.5-.2-.15-.97-.36-.4-.07-.36.66-1.05.32-1-.57-.6.34-.83-.2-.43-.7-.12-.22-.46-1.07.06-.45-.45-.15-.43-.58-.36 1.26-1.06-.1-.24.4-.27.43-.74-.06-.5.7-.42.13.38.33.08.16-.62-.17-.86.93-.65.09-.48.33-.08.02-.66.28-.18.48.16.33-.4.15-.54-.12-.34.67-.54-.12-.6.77-.38-.7-.26-.25-.63.18-.26-.13-.47.48-.69-.43-.79-.12-.75-.98-.43.86-1-.55-.2-.62.41-.32-.04-.4-.97.42-.24-.4-.32-.26-.53-.42-.42.1-.33.4-.19.33.1.98-.16-.06-.53-.5-.5-.02-.35-.58-.57-.27.18-.07 1.07-.25.6-.26.17-.9-.09-.41.16-.64-.03-2.12-.63-.66-.55-.51-.07-.6.18-.72.38-.7.52-.17.66.06.34-.3.48-1.02-.2-.65.04-.32.4-.44.2-.34-.05-.72.43-.33.6-.58-.06-.35-.53-.51.1.1.36-.44.5-.54.35-.62-.23-.28.15-.52-.19-.12-.39-1.43-.06-.54.31-.51-.05.29-.4.98-.9.89-1.44 1.7-1.53 1.37-1.65 1.33-2.16.87-.67 1.96-2.07.74-1.06 2.3-3.66.62-.8.4-.8.38-.79 1.25-1.67 1.2-.47 1.44-1.4 1.36-.85 1.47-1.23 2.12-1.93 1-.85 1.43-.87.43-.65 1.78-1.62.44-.9 4.84 5.1 1.88 2h3.32l-.35.58.07.45-.71.44-.47.55-.16.7-.33.62-.44-.03-.78.3.06.4-.61.61.72.12.55-.06.77.43.59-.27.8-.9.23-.37.38-.2.98-.06.6-.13.76-.45-.03.71h.2l-.16.8-.43.1-.01.55.44 1.01-.46.2-.5.82-.24.58.16.37-.25.82.39.95-.43.2.02.5.35.32.63-.17.73.5-.24.53.39.03.16.35-.2.3.13.42-.45.1-.35.61.39.5.36.2-.03.3-.55.44-.45.8-.4.41-.18.72.3.3.55-.02-.04.7.86.3-.33 1.34.14.24-.07.54.49.31.16.5-.56.41.02 3.15.05 7.74-7.7.04-1.67-.05-.56 1.07-.34.05-.42.45-.57-.08.04.55.4.36v.51l-1.22.53-.33.27.68.81.09.26-.25.44.12.46-.61.26v.5l-1.3.72-.1.54-.32.24.36.73.08.84.23.28-.11.53.19.2-.08.65.19.23-.2.83.32.91-.41.77.02.44-.3.1-.3 1.8.02.42-.28.51.37.1.29.5.75.41 1.09.76.88-.33.37.35-.07.95.38.41-.21.44.04.78.89.63.02.5-.47.75-.65.07-.87-.22-1 .36-.4-.26-.05-.57-.2-.26v-.76l-.73-.68-1.13-1.37-.45-.19.18-.4-.3-.25-.46.41-.36.51h-.5l-.16.34.45.14-.14.61.22.91.28.16.25.47-.08 1.03.05.62-.36.76.3.84-.81.84.66.58-.07.5.07.94h-.63l-.4.41.25 1.15.2.57-.75.4-1.44-.83-1.11.08z">
      </path>

      <path class="mapa-svg-estados Maraã-class" id="Maraã"
        href="https://594aee3c-e15e-44d4-b67a-780ff78cdb01.filesusr.com/ugd/b61413_080c77d8b1f64c4b89bcb992e347e853.pdf"
        d="m183.56 154.75.36.13 1.09-.17.63.4.24.61.05.68-.11 1.16.2.4.63.26.9-.22.48.13.3-.28.37-.72.83-.46h.53l.16.23-.27 1.78.38.46.06.32-.2.88.1.28.77-.18.35-.35 1.14-.12.28-.47.64-.19.5-.3.32.01.29.67-.43 1.5.2.36.62.56.04.35 1 .2 1.3.35.37-.18.27-.97.6.1.97.38.71.81.01.21-.63.11-.26.23h-.58l.04.7-.87-.07-.34-.16-.23.46.2.72.46.93.03.54.51.18-.06.9.53.53-.04.36.3.63-.09.56 1.17.2.36.38.02.37-.35.49-.83-.1-.42.34-.89.12-.42-.05.1.98.37.34.49.89-.07.46.09.7.2.34 1 .69.3.44.57.26.16 1.22.92.2-.4.78.66.33.3.58.49.41.28.44.45-.08.57.65.29.05.15.45.42.33.07.47-.8.13-.03.43-.37.57.24.5-.36.5v.6l.52.1.35.38.39-.17.43.26-.13.55.49.02.3.32.09.51.6-.36.48.5.7.45-.36.35.32.21.06.48-.14.38.79.98.66.11.3-.33.9.07-.17.28-1.43.21-1.33.03-.63-.86.07-.33-.25-.69-1.48-.04-1.02-.29-.85-.45-.68-.67-1.33-.96-1.14-.59-.56-.59-.66-.34-.35-.37-.33-.88-.82-1.1-.23-.43-.39-.27-1.35-.4-.95-.45-.5-.74-.45-.25-1-.87.05-.36 1.12-.33.07-.23-.35-.39-.41-.16-.81-1.07-.12-1.2-1.45-1.27.02-.56.25-.55.19-1.36-.38-.4-.51-.04-1.14.22-.4-.35.18-1.1.23-.8-.31-.63-1.02-.94-.74-1.5-.33-.48-.4-1.02-.21-.2-.66-.18-.08-.57-.47.13.12 1.22-.3.5-.45-.1-.34-.3-.1-.86-.4-.09-.07.34-.38.36-.76-.22-.8.22-.24.24.06.5-.55.22-.25-.08-.06-.62.35-.36-.03-.28-.56-.18-.45.02-.04.46.56.15-.35.6-.4-.16-.5-.4-.57.48-.37-.03-.13-.4.37-.79-.6-.43.5-.2.28-.44-.55-.3-.64.23-.2.43-.38.05-.23-.32-.57.07-1.23-.2-.18.26-.71-.35-.21.71-.62.31-.08-.8-.57-.04-.23-.43-.18-1.23-.26-.24-.52-.1v-12.92l1.05-.03.85.36.59.7.75.02 1.04.53.66-.1.62.08.43.24.4.72-.14.87.12.54.64.47.8-.05.3.14.3.52v1.23l.2.46.32.1.52-.96.82-.16.52.34z">
      </path>

      <path class="mapa-svg-estados Maués-class" id="Maués"
        href="https://594aee3c-e15e-44d4-b67a-780ff78cdb01.filesusr.com/ugd/b61413_106b129b708348b097c46297216be716.pdf"
        d="m323.94 185.44.2.54.28.18.3.59.44.14.1.27.5-.07.23.32-.08.46.23.4.8.05.33-.3.62.03.24-.42.29-.11-.1-.52h.6l.29-.15.87.16.58-.46.28.12 1.07-.38-.75 1.7-.8 1.78-1.5 3.21-2.25 4.8-2.42 5.12-2.21 4.7-1.95 4.12-3.3 7.18-1.56 3.42-3.06 6.67-2.48 5.32-1.64 3.48-.47.32-.6.12-.1.57-.3.52-1.37.95-.67.96-.23.52-.07 1.44.83 2.26.96 1.1.44.01.36.26.83 1.33.85.6.54.68.51.84.23 1.02-.12.57.08.74.4.53-6.24.12-.7-.14-.6-.97.56-.49.22-.39-.6-.68.61-.22-.15-.38.22-.62.34-.28.24-.82-.06-.28h-.63l-.17-.28-1.06.02-.27-.56-.28.04-.35-.8-.41-.6-.4-.13-.81-.6-.13-.54-.3.02-.3-.46-.16-.98-.69-.56-.46-.7-.16-.53.06-.83-.18-.69.14-.8.55-1.3-.02-.85-.32-.73-.24-.5-.67-.53-.23-.68.15-.53.64-.56.45-.19.12-.26.21-1.14.38-.58.13-.43-.17-.71-.35-.38.13-1.18.2-.47-.23-.67.2-.81-.28-.36.28-.43-.14-.48.18-.5-.6-1.12.23-.3.15-1.26-.45-.48-.08-.57.47-1-.17-.3.27-.44.21-.77v-.74l.6-.2h.68l.2-.26-.18-.42.9-1.08h.56l.02-.48.34-.38.5.08.37-.14.08-.8 1.83-.46-.05-.37.51-.83.34-.08.41-.39.08-.82.51-.32-.17-.3.75-.7-.4-.66.68-.27-.09-.39.45-.3.17-.6-.08-.3.47-.4.14-.95-.09-.32.28-.56v-.48l.44.1-.05-.9.54-.05-.2-.6.3-.45.41-.07-.17-.5 1-.45-.1-.37.23-.7-.63-2.3-.5-.4-.38-.01-.25.26-.6-.1-.5-1.14-.7-.35.22-.42-.46-.5-.23-.58-.46-.33-.17-.45-.32-.05-.59-.36.02-.44-.42-.11-.13-.6.48-.25.32.05.22-.33 1.07-.15.36-.33.2-.49.5-.48-.4-1.23.2-.77.77-.22.66.17.28-.54-.48-.27-.22-.7-1.92-.5-.6-.38.23-1.09 3.34-.06v-.77l.13-.68-.06-.83.47-.4.75.05.35-.58.32-.16.14.6 1.97.07.9-1.06.4.16.75-.27.17-.57.3-.37.1-.76.15-.27-.03-.58h3.18l-.04.7-.27.1-.05 1.22.2.16.06.87.35.17.22.43.4-.33.68-.08.22.13.11.81.4 1.3.4.31.52.7z">
      </path>

      <path class="mapa-svg-estados Nhamundá-class" id="Nhamundá"
        href="https://594aee3c-e15e-44d4-b67a-780ff78cdb01.filesusr.com/ugd/b61413_9a0b66c3438140b2b5f0a35d34237b53.pdf"
        d="M296.98 118.67v4.85l.15.85.4.32-.02 1.61-.28.5.03.57.25.64-.2.81.12.64.58.44.94.3.37.41.28.04.37.41-.19.6.44.82.04.48-.39.62-.09.68.43.45.1.62 1.24.71.49.74 1.29 1.07.66.24.43.6.24-.12.47.52-.31.56.73 1.03-.24.15-.08.6 1.15.82.27.74.56.61.75-.1.29-.2 1.67 1.76.8-.79-.1-.38.54-.04.2-.54.4-.43.74-.06.06.5.22.3.58.26-.13.53.09.62-.3 1.29-.2.54.14.34.36.1.25.38-.05.33.85.14-.1.3.46.18.25-.15.92.25.52.88.34-.05.32.31.72.02.5 1.48 1.19.04 1.38.4 1.25 1.18.52-.25.46.17.56.42.58.7.45-.38.34.3.29-.44 1.08.34.5-.25.44.32.12.35.8.3.27.43.33-.26.22.44.2.92.3.32.4.8.7-.19.49.81.66.2.84.5.3.41.32.1h.85l.46-.23.34.05.38.35.09.5-.2.57-.36.35-.3.52.15.6.94.16.1.32.41.2.77-.17.4.12.26-.63.22.03.28-.03.75-.63.35.08.52.47.6-.29.53.4.82-.7.3.21.6-.15.34-.7.73-.22.5-.57.55.02.18-.25.88-.1.68-.18.02.18-.79 1.11-.48.8-.6.67-1.07.67-.77.38-1 .3-.45.33-1.08.01-.29-.32-.27.11-.58-.44-.45.35.11.42-1 .7-.48-.12-.45.68-.8.4-.5-.14-1.07.22.11.62-.89-.2-1.06-.07-.14.4-.67-.25-.15-.44-.32-.36-.28.24-1.17-.03-.25-.3-.93-.5-1.22-.03-.34.58-.47.47-.37-.2-.43-.54-2.53.55-.33-.69-.93-.17-.54.3-.34-.5-.45-.06-.14-.53-.46-.08-.48-.3-.66.2-.12-.55-.86-.3-.42-.42-.4.08-.93-.99-.3-.5-.14-.69-.47-.06-.3-.6-.6.16-.27-.39h-.3l-.38-.63.18-.28-.15-1.08-.48-.5.2-1.04-.35-.12v-.59l-.19-.22-.03-.64-.2-.96-.6-.32.01-.36-.65-.19-.32-.47-.57.02-.35-.5-.62-.62-.56.03-.77-1.06.08-.69-.45-.36-.08-.42.32-.62-.11-.25-.67-.28-.22-.5-.74-.9.18-.74-.07-.62-.5-.42-.65.3-.34-.2-.86-.14-.4-1.62.12-.47-.3-.7-.26-.3-.45.26-.57-.16-.08-.29.2-.74-.4-.18-.22-.4-.55-.03-.21-.55-.3-.22-.66-.84-.18-.38.08-.36-.4-1.18.15-.72-.55-.58-.6-.8-.3-.68-.22-1.17-.6-.43-.46-.03-.47-.42-.22-.76-.22-.18.28-.42.56-.5.27-.58-.87-.5.21-.79.1-1.15.53.26.15-.17.05-1.2-.47-.66.24-.32-.04-.55-1.65-.42-.1-.45-.68-.09-.13-.59-.05-.8h-.76l-.6-1.17-.15-.54-.8-.04-.22-.67h-1.26z">
      </path>

      <path class="mapa-svg-estados Nova_Olinda_do_Norte-class" id="state-nova-olinda-do-norte"
        href="https://594aee3c-e15e-44d4-b67a-780ff78cdb01.filesusr.com/ugd/b61413_9d21f3ac41a74a9aac63a3bbff4be1fa.pdf"
        d="m306.63 186.66 1.92.5.22.7.48.27-.28.55-.66-.17-.78.22-.2.77.4 1.23-.5.48-.2.49-.35.33-1.07.15-.22.33-.32-.05-.48.25.13.59.42.1-.02.45.59.36.32.05.17.45.46.33.23.59.46.49-.22.42.7.35.49 1.14.6.1.25-.26h.38l.5.4.63 2.32-1.27-.34-.52.13-.08.38-.52-.03-.47.32-.22.54-.77.24-.33.42-.5-.07-.2.75-.37-.15-.41.22-.62-.32-.25.05-.4-.4-.8.42-.47-.5-.4-.1-.57.14.15-.63-.4-.73.02-.77.64-1-.14-.53-.6.07-.07-.47-.43-.51-.05-.44.17-.46-.48-.85-.61-.4-.57-.23-.27-.67-.45-.37-.1-.48.44-.77.14-.45-.54-.8-.4.06-.44-.35h-.36l-.4.8-.2.12-.85-.4-.45.1-.04.59-.6.14-.46.52-.5.05-.18.43-.37-.4-.73.09-.79-.08-.03-.22.51-.21.43-.38-1.06-.04.62-.53 1.2-.25.26-.2.66-1.02.03-.54-.16-.36-.69-.95.11-.35 1.56-1.28.35-.05 1.2-1.05.2.64-.24.5.35.1.45-.24h.52l.98.18.68-.41.46.09.36.34.07.53.38.34.43-.13.14-.5.43-.1.21.26.48.13.44.4.1.3.62.49.14.7.73-.32.22-.5.52.39.5-.92.46-.04-.03-.42z">
      </path>

      <path class="mapa-svg-estados Novo_Airão-class" id="Novo_Airão"
        href="https://594aee3c-e15e-44d4-b67a-780ff78cdb01.filesusr.com/ugd/b61413_38da1dfc0ccb4f44b8ba78d2e3c18427.pdf"
        d="m263.98 138.32-.21.31.04.5-.41 2.28.65.78-.45.36-.78.06v.6l-.33.8-.17.82.25.43-.23.34-.56.08-.32-.24-.76.47-.28.53.7.14.59-.12.14.44.62.45.19.85-.31.48.45.08-.06.4.9-.4.54.11.6.4.82.36.19.28.77.37.4.4.2.43.01.57-.57.74-.23.8.18.57-.16 1.1.08.59.2.29-.14.46.77.92.56.08h1.07l.65.56 1.54.08-.97.6-.08.15-1.12.35-.4.02-.7-.26-1-.07-.4.84-.55.49h-.27l-.25.6.32.4-.64.75-.68.29.4.55.43.39-.22.72.08.43-.2.22.28.46-.67.39-.05.3-.58.25.44.55-.1.3-.43.1-.32.55-.19.97.82 5-1 .12-.44.18-.44-.02-.19-.3-.7-.16-.4.45-.85.5-.02.37-.28-.05-.28-.55-.79-.68-.95.02-.52-.13-.38-.4-.99-.37-.39.09-.12-.5-1.1-.03-.98.1-.6-.22-.03.5h-.8l-.6.46-.53.5-.47.2-.43-.04-.78.18-.57-.11-.38.58-.97-.3-.29-.38.1-.4.4-.5-.07-.66-.66-.73-.25-.93-.34-.36-.54-.18-.9.25-1.1-.25-.72.46-1.32.22-.39.26-.57.87-1.16.3-.46.27-.89.33-.74.13-.44-.1-.93.16-.56.58-.73.18-.74.62-.27.53-.2 1.77-.72 1.6-.25.33-.57.28-.77-.25-1.33-.03-.79-.53-.59-.73-.85-.3h-1.17l-.47.1-.23-.14.41-1.33-.08-.78-.25-.5-.53-.14-.89-.08-.7-.46-.82.3-1.65.1-.53-.31-.39-.41-.33-.8-.43-.71-.37-.2-1.7.13-1.1-.06-.32.17-.78.72-.68.16-.37.3-.43.1-.36.37-1.1.49-.58-.18-.08-.37.26-.72-.27-1.22-.37-.78-.3-1-.37-.63-.53-.17-.32.24-.69.08-.79-.03-.79.2-.34-.18-.07-.66.12-.4.43-.68v-.4l.9-.08.54.1.93-.26.36.16.92-.02.44-.27.23-.6.32-.2.65.25.42-.03.72-.6.5.1.5.45.31.07.76-.17.5.56.11.6.31.4.61.33.36.02.65-.48.48-.56.46.09.4.56.4.27 1.01.17 1.8-.28.61.1.14-.55 1.45-.47.76-.17.95-1.4.44-.22.68-.08.07-.17.83-.3.38-.28.6.15.74.06 1.74-.3.53-.48h.28l.66-.38 1.04-.27.17.08.68-.32.33-.5.58-.31.18.2.96-.47.25.25.26-.48.41-.02.48.24.22-.54.41-.2.38-.66.3-.3.21-.63.45-.45.45.43-.06.34.53.1.6-.67.07-.25.51-.24.14-.57.64-.27.03.42.52.03.46-.18.36.34.5-.42.26-.04.54-.6.9.12.62-.64-.1-.36.74-.06.28.14-.06.48h1.06l.15.16.05.7.5.9.83-.32.08-.31-.26-.44 1.41-.2-.07-.57-.58-1.24-.09-.64.21-.95-.08-.62.06-.55-.17-.3-.69-.23-.22-.5.03-.9-.65-.37-.24-.28-.44-1.08-.45-.02-.14-.34-.66-.26.65-.73-.06-.26-.73-.8.35-.34-.02-.4.37-1.01.26-.28-.15-.4.26-.47-.22-.28.2-.33-.09-.34.53-.24-.02-1.03-.13-.37-.52-.1-.04-.71.11-.46.43-.38-.08-.44.15-.55.02-.68.2-.72.45-.23.46-.43.2-.66.26-.44.52-.1.4-.37.83-.55h.54l.35-.32.56-.06.76-.24.23-.6-.03-.5.96.29.12-.26.5-.08.28.17.68-.01.4.67 1.3.3.88-.23.21.55-.1.47.63.7.35-.12.25.3.04.55.71.07.2.38-.04.5.6.25-.26.53.42.5z">
      </path>

      <path class="mapa-svg-estados Novo_Aripuanã-class" id="Novo_Aripuanã"
        href="https://594aee3c-e15e-44d4-b67a-780ff78cdb01.filesusr.com/ugd/b61413_f0ddf794ae174680bb4413fc0ccc5543.pdf"
        d="m279.7 243.75-4.52 1.78-10.05 4.13.49.35.35.64-.05.46.34 1.06-.07 1-.26 1.11.12.58-.04.71-.5.89.12.6-.16.74.26.73-.2.53.52.47 1 .07v.32l.44.5-.02.63.43.13-.16.57.6.63-.19.43.28.85-.12.27.43.23.17.56.48.5.26 1.3-.17.67v.63l-.24.55.07.62-.25.17-.23.76.57.16-.23.62.2.18.2.7-.78.2-.1.4.2.3-.8 1.02.34.9-.23.24.91.62.26.58.5.44-.1.43.12.6-.05.86.57.1-.4.56-7.33.03h-13.23l-.4-.06-.42-.74.06-.43-.84-.42-.56.04-.14-.34.54-.65 1.11-.08 1.44.82.75-.4-.2-.56-.25-1.15.4-.41h.63l-.07-.94.07-.5-.66-.58.81-.84-.3-.84.36-.76-.05-.62.08-1.03-.25-.47-.28-.16-.22-.91.14-.61-.45-.14.16-.35h.5l.36-.5.47-.41.3.25-.19.4.45.19 1.13 1.37.73.68.01.76.2.26.04.57.4.26 1-.36.87.22.65-.07.47-.75-.02-.5-.89-.63-.04-.78.21-.44-.38-.41.07-.95-.37-.35-.88.33-1.09-.76-.75-.42-.29-.5-.37-.1.28-.5-.02-.42.3-1.81.3-.1-.02-.43.41-.77-.32-.91.2-.83-.19-.23.08-.66-.19-.2.11-.52-.23-.28-.08-.84-.36-.73.33-.24.1-.54 1.3-.72v-.5l.6-.26-.12-.46.25-.44-.09-.26-.68-.81.33-.27 1.23-.53v-.51l-.4-.36-.04-.55.57.08.42-.45.34-.05.55-1.07 1.68.05 7.7-.04-.05-7.74-.03-3.15.56-.42-.16-.5-.49-.3.07-.54-.14-.24.33-1.34-.86-.31.04-.7-.55.02-.3-.3.18-.71.4-.42.45-.8.55-.43.03-.3-.36-.2-.39-.5.35-.61.45-.1-.12-.42.2-.3-.17-.35-.39-.03.24-.54-.73-.5-.63.18-.35-.32-.02-.51.43-.2-.39-.94.25-.82-.16-.37.24-.58.5-.82.46-.2-.44-1.01.01-.56.43-.1.17-.8h-.2l.02-.7-.76.45-.6.13-.98.05-.38.2-.22.38-.8.9-.6.27-.77-.43-.55.06-.72-.12.61-.61-.06-.41.78-.3.44.04.33-.63.16-.7.47-.54.71-.44-.07-.45.35-.6.56-.7-.16-.54h7.35l.51-.78.66-1.44.54-.27h.33l.95.4.62-.02.5-.3 1.4-.55.54-.12 1.07 1.63 3.78 5.69-.45.65-.05.63-.42.7-.09.96.32.34.14.57.38.06 1.4-.43.22.43.27-.06.47.33.05.66-.53 1.2-.3.23-.16.56-.27.4.17 1.5.9.8.13.46.42.8.52.4-.09.22.66.3.22.32-.05.56.76.25-.04.72.33.24.46.82.14 1.03.33.23.18.4v.45l-.32.57-.57.73.55.28-.1.4.48.57.32 1.26-.1.3-5.2-.01-.39.29-.52-.22-.94-.11-.6-.17-.33.38-.53-.2-.37-.51-.48.85-.19.82-.75.06-.1.25-.52.24.08.28-.49.89.47.29.15.87-.2.7.48.35.05.85.26-.1z">
      </path>

      <path class="mapa-svg-estados Parintins-class" id="Parintins"
        href="https://594aee3c-e15e-44d4-b67a-780ff78cdb01.filesusr.com/ugd/b61413_c6e75bfcaf224bd2a8713fc377040cfe.pdf"
        d="m341.27 163.6-.42.77-.22.84-.7.95.01.15 1.1.44-.43.8-3.24 6.98-.82 1.83-1.97 4.29-.75 1.59-.5-.18-.24-.38h-.62l-.9-.57-.1-.68-.5-.43-.18.19h-.78l-.34-.14-.04-.54.47-.7.01-.32.43-.85-.05-.7-.56-.34.2-.56.05-.87.86-.47h.5l.4-.21 1.1.37.37-.66-.03-.42.43-1.25.4-.53.68-.08-.06-.43-.82.23-.43.47-.46-.36-.9.54-.76-.41.58-1.3-.52-.2-.68.2-.08.19-.7.06-.13.27-1.14.37-.77-.21-.7.09V171l-.33-.28-.46.22-.71-.3-.7-.77-1.4.13-.5-.32-.32-.57 2.47-1.78-.74-.6-.4-.7-.93-.62 2.53-.55.43.54.37.2.47-.47.34-.58 1.22.02.93.5.25.3 1.18.03.28-.24.32.36.15.44.67.24.14-.38 1.06.06.89.2-.11-.61 1.06-.22.5.13.8-.4.46-.67.48.1 1-.68-.11-.42.45-.35.58.44.27-.11.29.32z">
      </path>

      <path class="mapa-svg-estados Pauini-class" id="Pauini"
        href="https://594aee3c-e15e-44d4-b67a-780ff78cdb01.filesusr.com/ugd/b61413_1c7e4c9720e34890b9e7448bc6e36d19.pdf"
        d="m144.85 251.44.56.23.47.48 1.03-.02.63-.19.2-.4-.07-.88-.15-.47.41-.38 1.11-1.4.96-.3 1.22-.14.23-.47 1.01-.28.63.65.05.74.58.1.05.46.57.25-.02.22.4.85-.29.35.37.7.17-.06.84.32 1.12.96.41-.03.14.42.52.05.3.55 1.13.89v.3l.66.26.94.56 1.21.15.3.26 1.26-.21.15-.34.78.09.18.88-.13.4-.49.18-1.2-.1-.13.35-.48.24-.15.57-.25-.02-.18-.52-.35.04-.1.5-.26.22-.57-.04-.44.23.17.39-1.39.44-.26.62-.47.04.11.37-.44.42-.5.16-.73.6.33.19-.06.57-.56.65-.46 1.12-.17.78.3.55.07.85-.26.27-.13.78.37.27.09.4-.32.47-.52.32-.03.4-.3.26-.2.84.24.26.24 1.1-.3.4v.62l-.42.27-1.9.63-6.3.04-.14.56-.8.26-.2.47-.32-.34-.4.15-.33-.41-.9-.31-.46-.84-.74-.02-.42-.58-.61-.11-.44-.38-.17.2-.46-.36-.24-.41-.83-.31-.6.06-.62-.43-.55-1.2.11-.25-.83-.58-.07-.64-.47-.32-.43.03-.13-.3-.46-.13-.4-.46-.64-.14-.66.28-.29-.44-.03-.37-.4-.21-1.16.07-.52.12-.79-.32-.48.16-.7-.4-.97-.28-.3.33-.3-.24-.26.25-1.17.45-.58-.11-.65-.3-.9.09-1.6.62-.5.69h-.4l-.58.44.2.44-.2.83.36.6-.2.94.17.35-1.07.8-.08.56.14.27-.5.72-.12.45-.44.3-.6.23-.33.67-.85-.05-.16-.4-.31-.01-.52.38-.68.25-.81-.37-4.1-3.5-6.31-5.4.25-1.1-.23-.83.2-.2.08-.56-.25-.31.1-.41.45-.08.07-.35.58-.41.45-.58.4.1.45-.46.56-.26.17-.61.3-.48.51-.07.26-.5-.56-.55.04-.34.52-.67-.18-.23.56-1.2.45-.54-.3-.4.15-.4.46-.15-.37-.8.4-.4.07-.4-.14-.62.32-.48-.29-.87.11-.4.5-.18.04-.43-.5-.3-.07-.41.43-.1.85-.45-.02-.22.44-.63.52-.25 1.32-.01.88-.34.77-.84.48.28h.6l.08.97.6.18.72.42.22-.37.5.1-.37.68.28.05.37-.31.6.36.67.22.37.25 1.11.06.6-.16 1.36.4.73-.35.56.03.9.67.22.35-.1.3.57.39v.32l.42.08.15.42.75.02.28-.5-.26-.51.06-.53.54-.07 1.23.39.74-.1.46-.26.82.33.7-.45.55-.18.44.09.1.38 1.02-.4.66-.03.23-.38.4-.1.73.59 1.51.08.23.19.34.77.1.55-.48.35.34.19.8-.33.53-.06.25.15 1.26.1.58.82-.11.39.76.44.23.76.51.2.24-.16.6-.93.74-.42.36-.58z">
      </path>

      <path class="mapa-svg-estados Presidente_Figueiredo-class" id="Presidente_Figueiredo"
        href="https://594aee3c-e15e-44d4-b67a-780ff78cdb01.filesusr.com/ugd/b61413_534ee30db38044fbaf2c78353ff8334f.pdf"
        d="m288.42 143.6-.08.5.2.32-.01.76.2.24-.76.14-.63.48-.03.6-.46.28-.63.96-.27.77.58.37.49-.34h.37l1.38.43.44-.03.08.43.44.04.16-.53.46-.4 1.39.26.09.47.62.76-.1.52.27.35.25.75-.26.22.04.41-.5.3.02.31-.51.6-.38 1.23.06.46-.22.34-.44.12.1.52.32.2.42.78.04.4.72.35-.02.44.67.4.2 1.23-.27.41-.07.87-.2.4-.31-.06-.33.28.02.45.6.7.27-.47.42.37.4.56-.47.38-.42.77-.7.8-1.75 1.08-.1.58-.41-.15.24-.35-.07-.32-.65-.62-.35-.5-.5.03-.22-.18-.7.16-.4-.84-.31-.22-.67-.1-.24-.95-.35-.42-.31-.12-.26-.69-.65-.1-.41-.36.15-.26-.61-.46-.34-.06v-1.07l-.58.01-.08.83.17.45.07.7-.2.38-.7.52-.47-.39-.43-.56-1-.28-.44-.27h-.68l-.6-.23-.78.05-.25-.32-.47-.07-.75-.38-.13-.29-1.02-.32-1-.67h-.5l-.6-.3-.53-.51.29-.6-1.04.5-.31.03-1.54-.08-.65-.56h-1.07l-.56-.08-.77-.92.14-.46-.2-.29-.08-.58.16-1.1-.18-.58.23-.8.57-.74-.02-.57-.2-.43-.4-.4-.77-.37-.2-.27-.8-.36-.61-.4-.53-.1-.91.38.06-.39-.45-.09.3-.48-.18-.85-.62-.45-.14-.44-.58.12-.71-.14.28-.53.76-.47.32.24.56-.08.23-.34-.25-.43.17-.8.34-.82-.01-.59.78-.06.45-.36-.65-.78.4-2.28-.03-.5.2-.3.39.16.99.12.37.28.79-.52.42.23.13-.38.52.13.39.33.59-.5-.27-.25.44-.27-.08-.55.4-.33.89.16.34-.34.6-.35.44.14.47-.4.3-.5-.04-.39-.97-1.2-.34-.18-.06-.6-.2-.07-.1-.59.27-.97.67-.43-.04-.48.39-.53.36-1.12.03-1 .24-.85.37-.36.03-.29.8-.66-.07-.3.84-.64.47.06.54-.17.7-.56 1.05-.08.84.34.7-.4.1-.44-.21-.55.46-.3.92 1.41v.43l-.28.44-.7.53.12.43.7.23.46.33.66.85.04.33-.54.33-.25 2.21.38.34-.7 1.02-.4-.25-1.07 1.07.07.26-.31.68-.6.01-.65.48.28.37-.4.6-.16.43.43.93-.1.25.42.86.63.74.5.37.3-.04.65.78.67.28.3.67-.06.33.99 1.36 1.22.61.29.45.4-.28.16-.4.68.26.17.42.28.08 3.98-.05z">
      </path>

      <path class="mapa-svg-estados Rio_Preto_da_Eva-class" id="Rio_Preto_da_Eva" title="Rio Preto da Eva"
        href="https://594aee3c-e15e-44d4-b67a-780ff78cdb01.filesusr.com/ugd/b61413_b0a988272b5b43d38e4777cd5bc5a17c.pdf"
        d="m290.23 167.16.49.04.19-.23.74.03.4.24.32.58-.18.39-.61.45.15.74-.65.76v.85l-.58.43-.11.29-.7.42-.87 1.07-.02 1.05-.37-.27-.55.38-.38.68-1.23.8-.56-.38-.84.17-1.02.02-.45-.3-.76-.09-.4-.72.24-.3-.41-.42-.37-.63-.41.14-.64-.48.06-.27-.3-.3-.03-.63-.74-.35.04-.56-.54-.46-.18-.73-.5.1-.13-.27.16-.5-1.03-.52h-.6l-.04-.86.2-.92-.3-1.33-.1-.8.12-1.12.21-.4.5-1.75-.02-.4.8-.06.59.22.68.01.44.27 1 .28.43.56.47.4.7-.53.2-.39-.07-.69-.17-.45.08-.83h.58v1.06l.33.06.61.46-.15.26.41.36.65.1.26.7.31.11.35.42.24.95.67.1.32.22.4.84.7-.16.23.18.49-.04.35.51.65.62.07.32-.24.35z">
      </path>

      <path class="mapa-svg-estados Santa_Isabel_do_Rio_Negro-class" id="Santa_Isabel_do_Rio_negro"
        href="https://594aee3c-e15e-44d4-b67a-780ff78cdb01.filesusr.com/ugd/b61413_ea51089fded04d82aa7250244b589ad9.pdf"
        d="m183.56 154.75-1.41-.42-.52-.34-.82.16-.52.96-.32-.1-.2-.45v-1.23l-.3-.52-.3-.14-.8.05-.65-.47-.12-.54.15-.87-.4-.72-.43-.24-.62-.08-.67.1-1.04-.53-.75-.03-.59-.7-.85-.35-1.05.03-1.7.16-.9.33-.79.54-.86.35-.82 1-.5.36-.51-.1-.47-.53.15-.85-.41-.28-.54.18-.63-.02-.44.49-.78.44-.52.09-1.4.62-.47.53-.84.4h-.58l-.66-.4-.77-.04-.6.16-1.16.04-.97-.34-.58.06-.77-.22h-1.07l-.73.4-1.12.08-.7.19-.57-.18-1.01.15-.45.24-.44.59-.8-.43-.88.2-.66-.02-1.45-.7-.2-.27.05-.52-.58-.97.59-.68.3-.14.76-.07.66-.51.18-.44.18-.94 2.28-1.33.86-.28.92-.5 1.05-.8.49-.2 1-.77.89.08.69.43.35.05.64-.26.57-.07.63-.57-.06-.37-.7-1.05.54-1.07.5.04.94-.15.62.28.78.08.4-.7.03-.84.4-.86.45-.45-.05-.31-.52.13-.04-.31.42-.68.02-.52-.24-.34.08-.38.52-.25.64-.52.63-.25.73-.53 1.04-.33.32-.44.55-.1.62.69.3.14 1.3-.42.89-.71-.03-.52.57-.47.44.15.46-.16.88.09.3-.11.26-.94.4-.26.1-.8.45-.22.97-.05.6-.41 1.55-.32.03-.93-.24-.8-.36-.5-.4.19-.54-.21-.4.43-.04.5-.82.15-.1-.6-.51-.73-.02-.57-.4-.08-.24-.27.46-.27.2-.34-.94-.38.33-.25.1-.52-.16-.27.08-.6-.37-.25-.41-.64-.52-.51-1.02.1-.45-.36-1.01-.33-.18-.35-.94-.23-.32-.8.2-.34.63-.52.32.04.42-.41.19-.85.35-.07-.02-.42-.26-1.01-.03-.46.75-.8 1.03-.62.37-.02 1.1-.73.04-.46-.3-.52-.5-.37-1.2-.6-.37-.5-.38-.01-.68-.41-.04-.33 1.87-.46 1.09.64 1.1-.25.33-.82.57-.12.37.2.8-.1.46-.82.16-.52.98-.34.34-.52.8-.38.88-.21.49-.63.93.16.6-.37.82.13.37-.08.24.42.53.17.1.48.49.58-.06.54.15.58-.36.49-.44.88-.44.18-.31.76.26.18.22.63.42.48.17-.34 1.38-.31.5-.4.05-.43.42-.31-.01-1.26.12-.41.32-.36.38-.15.4-1.03.47-.2.68.15.4.23.58-.13.2.3.57-.7.02-.33.3-.7-.35-.03.23-.8.04-1.06.86-.71.74.33-.1.33.79.07.92-1.02.16-.3-.15-.48.76.04.35-.47.36.17.3-.16.14-.5.64-.46.04.29-.53.87-.2.64.78.55.36.54.39.26.4.5.44.18.53.74.63-.05.34.2.38-.05.3.66.35.15.3.9.28.04.2.49.59.14.6.57.49.19.12.85.29-.05.5.25.73 1.03.36-.05.39.27.8.29.43-.14.05.59.23.04.44.45.67-.18.32.64.33.12.77.69.29.6-.12.25.34.7.1 1.58.27.2-.08.42.43.32.1.5-.25.12.2.48-.06.5.49.69-.13.47.5.54v.84l-.33.14-.01 1.95-.26.16-.25 1-.33.59-.31.04-.26.56-.4.24-.41-.2-.14.34.6.58.07 1.14-.32.6-1.1.3-.55.42-.71.19-1.62-.11-1.94.3-.88.73-.92.07-.5.3-.83.28-.7-.05-1.01.54-.94.06-.2.22-.82.43-.2.34.39.95-.27.52.29.2-.24.8.42.89.06.85-.12.27.15.58-.41.13.07.3-.55.13-.12.53.25.34-.1.44-.38.54.02.54-.31.98-.33.13-.35-.27-.67.08.02.43-.55.03.32 1.03-.05.75-.6.4-.5-.04-.25.42.14.26-.28.58.07.89-.43.26-.01 1.1.47.27-.18.7-.5.69-.57-.12-.89.15-.6.32-1.01.04-.75.13.06.7-.45.65-.11.45-.45.56.05.3-.46.58.46 1.1.23.23.53.06z">
      </path>

      <path class="mapa-svg-estados Santo_Antônio_do_Iça-class" id="Santo_Antônio_do_Iça"
        href="https://594aee3c-e15e-44d4-b67a-780ff78cdb01.filesusr.com/ugd/b61413_c6dca03dcbef40ddbab020d1a6030068.pdf"
        d="m123.6 171.65.24.6.91.37.61.89.43.2.46-.12.63.08.5-.11.3.19 1.01-.06.65.14v.35l.5.1.6.33.67-.12.43.08.3.87.51-.11.23.49.9-.08.35-.3.62.4.78.06 5.12-.04-.2.45-.4 2.02-.04.59-.7 1.97-.05 1.38-1.92-.1.14-.27.25-1.2-.17-.61-.44-.9-.55-.42-1 .44-.42-.77-.52.4-.27-.48-.54.32-.3-.37-.33.03-.04-.84-1.1.4.2.34-.32.37-.65-.43-1.87-.25-.5.09.01.68-.17.37-.56.16-.01.34-.9-.11-.4.39-.54-.31-.5.05-.35.33.25.53-.6-.02-1.27.02-.01-.5-.37-.53-.26-.11-.73.47-.3-.36-.52.27-.45-.02-.33.53-.66-.18-.44.28-.98.23-.45.01-.26.66-.61.54-.4.07-.27-.27-1.18-.1-.24.18-.07.66-.33.4-.46.15-.25.65-1.16.14-.34-.27-.55 1.03-.7.24-.31.43-.68.14-.26.24-.33-.17-.28.88.17.52-.45.28-.58-.23-.72.25-.1.4-.44.62-.2.56-.34.06-.64.58-.6-.16-1.22-.12-.73-.4.69-3.77.99-5.45.94-5.2 1.35-7.63 1.87.17.64.45.7.3-.19.7h1.17l.53.36.5.66.15.47 1.23-.4.61.25.38.63.01.68.2.44-.04.53.4-.14.42.34.18.47.4.23.5.9.5-.21.46-.71.45.07.53.47.39-.25.83-.14.84.2.46-.4.69-.02.69-.54z">
      </path>

      <path class="mapa-svg-estados São_Gabriel_da_Cachoeira-class" id="São_Gabriel_da_Cachoeira"
        href="https://594aee3c-e15e-44d4-b67a-780ff78cdb01.filesusr.com/ugd/b61413_ce03497a38a442fd9b1475853e464cfb.pdf"
        d="m165.78 110.3.68.42h.38l.38.5 1.2.6.5.38.3.52-.04.46-1.1.72-.38.02-1.03.63-.75.8.03.46.26 1 .02.42-.35.07-.19.85-.42.41-.32-.04-.62.52-.2.35.31.8.94.22.18.35 1.01.33.45.36 1.02-.1.52.51.41.64.37.25-.08.6.17.27-.1.52-.34.25.94.38-.19.34-.46.27.24.27.4.08.01.57.52.74.1.6.81-.16.05-.5.4-.43.53.21.4-.18.36.5.24.8-.03.92-1.55.32-.6.41-.97.05-.45.23-.09.8-.4.25-.26.94-.3.11-.89-.09-.46.16-.44-.15-.57.47.03.52-.89.71-1.29.42-.3-.14-.63-.68-.55.1-.32.43-1.04.33-.73.53-.63.25-.64.52-.52.25-.08.38.24.34-.02.52-.42.68.04.31.52-.13.05.31-.44.45-.4.86-.03.84-.4.7-.78-.08-.62-.28-.93.15-.52-.04-.53 1.07.7 1.05.06.37-.63.57-.57.07-.64.26-.35-.05-.7-.43-.88-.08-1 .78-.5.2-1.04.8-.92.5-.86.27-2.28 1.33-.18.94-.18.44-.66.51-.75.07-.31.14-.6.68-1.09.28-.59-.1-.99-.62-.55-.09-.82.47-.47.16-.52-.09-.5-.39-.54-.19-.75-.09-.94.43-.68.02-.59-.29v-8.56l-.08-5.8-.42-.1-.7.04-1.03.21-.04.2-.76.32-.44.35-.83.11-.38.4-1.2-.1-.18.1-.78-.23-.85-.36-.44-.46-.04-.52-.4-.58-.4-.3-.52-.85-1.46-.37-.72-.39-.5-.04-.24-.25-.72-.24-.3-.24-.74-.12-.38.2-.53-.07-.33.32-.54-.06-.74.28-.23.32-.72.08-.4-.26-.67-.2-.9.16-.45-.2-.25-.36-.79-.22-.36-.68-.6-.56-1.37-.1-.03-.53-.98-.59-.57-.07-.5-.42-.07-.57.06-1-.76-.47-.53-.48h-1l-.4-.34-.02-.88-.3-.37-.42.06-.26.66-.62.08-.33.36h-.3l-.4-.62-.63-.4-.18-1.15-.57-.26-.06-.92-.19-.23-.85-.16.01-3.17.04-5.5.7.31.22-.35.87.12.5-.55.47.18 1-.27.32.13.86-.4.25-.29.44.1.13-.47.67-.49.56.17.24.43.5.13.27-.53.44-.44.57.01-.02-.29.95-.63 1.26 1.08.02.24.71.6h.48l.53-.18.45.31.84.31.46-.13.34-.74.22-.08.84.17.32-.06-.52-.93-.63-.39-.12-.44.62-.28.13-.32-.37-.8v-.4l.42-.02.11-.44-.64-.45h-.23l-.1-.53.48-.24-.18-.24-.57-.22.04-.49-.17-.36-.92-.78-.43.03-.56-.59-1.14.24-.54.53-.34-.09-.03-.4-.99-.14-.5.15-.79-.02-.72-.43-.75.17-.63.33-.43-.24-.02-.64-.36.2-.42-.06-.53.3-.3.5-.5.02-.26-.23-.02-7.33.06-3.9.36.27.47-.08.76-.52.73-.18.52.24.43-.02.96-.48.63-.23.27-.26 1.15.52 1.08.1.73.48 3.64-.07 3.15.02 5.36.01h9.56l-.23-.69-.58-.27-.6.24-.15-.4.2-.6-.59.03.06-.59.18-.32.18-.85.61-.6.45-.32.75-.1.67.85.27.62.78.03 1.23 1.2.58.02.6-.62-.1-.56.53-.09.41-.3.73-.83.7-1.14.51-.16.93.3.47.06.9-.07.22-.2.37-.89.5-.37.13-.63.51-.5 1.3-.67.31-.59.73-.04.44.24.37.44.12 1.9.2 1.2.45 1.83.4.9.6.31 1.22.02.31.14.58.88.15.56.32.62-.03.9.31.77.05 2.44.12 1.01-.15.73-.14 1.35.02 1.65.08.5-.09.65 4.08-1.12 4.56 4.07 4.96 4.33z">
      </path>

      <path class="mapa-svg-estados São_Paulo_de-Olivença-class" id="São_Paulo_de-Olivença"
        href="https://594aee3c-e15e-44d4-b67a-780ff78cdb01.filesusr.com/ugd/b61413_cd419e4f06d14903add381b0a04fd60e.pdf"
        d="m124.84 180.43.14 8.16-.76.28-.48-.11-.89-.03-.27.1-.2.72-.95-.05.1.75-.23.9.21.4-.33.5.07.42.36.28v.47l-.4 1.25-.36.63-.39.17-.17.41-.37.23-.18.72-.53 1.08v.44l.26.73-.1.92-1.24.32-.2.4-.1.8.02 1.98-.2.95-.47.33-.32.42-.14.8-.54 1.01-.47-.07-.24.31-.06.62-.28.41-.72.16-1.07.85-.14.5-.45.45-.49 1.04-.28.3-.49.14-.52-.46-.3.28.2.37-.08.68-.54.8-.38.8-.72.36-.2.5-.04.73-.25.44-.5-.1.16-.35-.48-.2-.93.53-.79.06-.17.31-.74.12-.7.4-.2 1.1-1-.13-1 .23-.4.25.07.44.43.15.3.65.6.95-.78.84.25 1.11-.05.23-.59.14-.07.33.28.4v.71l-.32.9-.6.12-.44.44-.34 1.36-.24.32.01.6.26.42-.49.85-.93.8-.3.1-.29.37-.26.7.2.41-.9 1.6-.36.12-.47.41h-.28l-.56.4-.47.13-.32.34-.56.22-.2-.29-.07-.47-.34-.28.1-.3-.57-.78-.66.13-.16-.29.35-1 .55-.58.53-.85.41-.33.6-.17-.05-.9-.24-.47.3-.35.15-1.04.51-.46-.08-.6.26-.77-.09-.72.11-.56-.4-.23-.1-.68.57-.17.33-.68-.03-.3.46-.37.24-.58.05-.7.22-.8-.12-1.04.22-.63.46-.7-.1-.79.21-.59.57-.49.35-.9.86-.72.8-1.35.88-.28-.03-.52-.43-.94.11-.4.62-.7.68-1.28.17-.89.94-.45.66-.6.54-.36.83-1.06.4-.24 1.41-.1-.09-.72.17-.34 1.1-.2.3-.83.5-.47.58-.2.4.1.18-.7-.2-.49-.74-.28-.45-.38-.33-.74.65-.5.45-.85.25-.2.91-.36.12-.19-.46-.48-.57-.18-.54.17-.5-.02-.23-.2-.1-.75.27-.52 1.72-.89.2-.37.31-1.26.03-1.2-.52-.8.12-.62-.44-.69-.46.28-.52.13-.63-.14-.5.5-1.04.17-.47.38-.55.14-.08-.27.5-.72.25-.95.2-.56.45-.62.1-.4.71-.25.58.23.45-.28-.17-.52.28-.88.33.17.26-.24.68-.14.32-.43.7-.24.54-1.03.34.27 1.16-.14.25-.65.46-.16.33-.39.07-.66.24-.18 1.18.1.28.27.4-.07.6-.54.26-.66h.45l.98-.24.44-.29.66.18.33-.53.46.02.52-.27.3.36.72-.47.26.11.37.53.01.5z">
      </path>

      <path class="mapa-svg-estados São_Sebastião_do_Uatumã-class" id="São_Sebastião_do_Uatumã"
        href="https://594aee3c-e15e-44d4-b67a-780ff78cdb01.filesusr.com/ugd/b61413_b202830acc56464988ac25398d9411e0.pdf"
        d="m314.76 169.44.58-.35-.64-.21-.44.05-1.09.36.11.55-.2.2-.54.1-1.11-.38-.64-.4-.72-.3-.44-.31-.51-.87-.31-.1-.37-.45-.63-.4.47-.65-.07-.6-.4-.14-.24.33-.51.07-.21-.2-.42-1.08-.55-.05-.16-.31-.77-.13-.58-.32-1.45.4-.8-.46-.28.05-.81.44-.44.42-.6.08-.3-.41.33-.43-.31-.33-.43.19-.1-.43-.87.03-.1-.48-.43.26-.38-.11-.18-.33-.79.46-.09.32-.8-.41-.63.07-.68-.4-.43.22.16.5-.3.06-.4-.56-.43-.37-.26.46-.6-.7-.03-.44.33-.28.31.05.2-.4.07-.86.27-.41-.2-1.24-.67-.4.02-.43-.72-.35-.04-.4-.42-.78-.32-.2-.1-.52.44-.12.22-.34-.06-.46.38-1.24.51-.6v-.31l.48-.3-.04-.4.26-.22-.25-.75-.26-.35.1-.52-.63-.76-.09-.47-1.39-.26-.46.4-.16.53-.44-.04-.08-.43-.44.03-1.38-.43h-.37l-.49.34-.58-.37.27-.77.63-.96.46-.28.03-.6.63-.48.76-.14-.2-.24.01-.76-.2-.32.08-.5.3.12.28-.26.73.29.5.05.02.29.42.24.25.44 1.06.72.33.4.67.04.48.5.62.2.13.26.55-.31.9 1.19.35-.02.07.37.38.68 1.07.22.12.52.42.27 1.66-.02.41.4.45.99.5-.05.17-.32 1 1.03v.33l.5 1-.18.42.34.27-.49.49.91.66 1.33.26.08.3.75.83.3.57.37.3.54.02.4-.14.65.47.38-.2.23.25v.47l.23.26.86.42.26 1.1-.24.74.48.34.46.09-.08.52.4.57.05.38 1.4.09.7.78.32.7-.15 1.06.07.65h1.58l.38.55.2.57.3.18.14.58.42.33.75.16-1.03 1z">
      </path>

      <path class="mapa-svg-estados Silves-class" id="Silves"
        href="https://594aee3c-e15e-44d4-b67a-780ff78cdb01.filesusr.com/ugd/b61413_d591ef9377f4487c8329553845103cfe.pdf"
        d="m310.85 173.87.15.33-.5.66-.2.94-.36.89-.27.29-1.2.84-1.28.46-1.03.63-.18-1.03.25-.34-.56-1.18-1.25-.42-.51.36-1.27.34-.75.37-.61-.1-1.64-.84-1.24-.86-1-.47-.11-.28.23-.35-.65-1.11-.25-.17.19-.4-.6-.38-.35.09-.1.32-.44-.1.03-1.42-.43.16-.36-.51.1-.62-.4-.26-.04-.65.52.34.18-.56.42-.25.5-.04.27.29.8.26.34-.3.53.53.84-.08.39-.17.53.36.52.14.07.28.56.54.38-.08.27.24 1.06.13 1.08.39.42.02.58-.72.27-.17.5.08.82-.61.76.05.58-.24.18.17.71.1.32.4.38-.02.52.59-.04.69.15.52z">
      </path>

      <path class="mapa-svg-estados Tabatinga-class" id="Tabatinga"
        href="https://594aee3c-e15e-44d4-b67a-780ff78cdb01.filesusr.com/ugd/b61413_ed8dacf84c734d269683257d072f94ad.pdf"
        d="m107.06 188.54-.26.95-.49.72.08.27.55-.14.47-.38 1.04-.18.5-.49.63.14.52-.13.46-.28.44.7-.12.6.52.8-.03 1.21-.32 1.26-.19.37-1.72.9-.27.51.1.75.23.2.5.02.54-.17.57.19.46.48-.12.19-.9.36-.26.2-.45.85-.65.5-.64.56-1.24.06-1.2.67-1.42.38-1.1-.58-1.15-.85h-.27l-.4-.45.05-.68.3-.2.73-3.8.99-5.55.72.4 1.22.12.6.16.64-.58z">
      </path>

      <path class="mapa-svg-estados Tapauá-class" id="Tapauá"
        href="https://594aee3c-e15e-44d4-b67a-780ff78cdb01.filesusr.com/ugd/b61413_a57c5fca61ff494cb778e1d7f8a334e0.pdf"
        d="m224.41 208.03 1 .52.3-.56.45-.03.25.25 1.09-.18.37.1.62.77.76-.1.36.27.17 1.04-.71.62.06.43.27.1.43-.21.26-.81.5-.3 1.3 1.79 3.9 3.76 4.49 4.35-.4.8-.62.8-2.3 3.67-.75 1.06-1.96 2.07-.87.67-1.33 2.16-1.37 1.65-1.7 1.53-.89 1.43-.98.9-.29.4-.56 1-.55.6-.32.58-.46 2.4-.7 1.68-.7 1.08-2.04.03-.24-.07-7.35-6.06-6.46-5.33-5.55-4.58-1.58-.42-.45.2.02 3-.76.07-.39.55-.06.5-.38.47-.66.38-.21 1.08-.23.64-.42.54-1.07.76-.15.26-.08 1.2-.48.49-.2.58-.02.7-.24.45-.58.4-.2.3-.03.8-.41.4-.14.56-.31.16-.52-.03-1.24.28-.51-.03.44-.85-.18-.4-.6.13-.57 1.12-.73.89.3.56-.04.73.16.35-.21.52-.4.54.35.47.33.18.07.48-.17.35-.31.03-.57.34-.1.32-.98.56-.25.54-1.54.73-1 .3-.8.72-.2-.13-.55.35-.46.06-.57.46-.75.14-.65-.14-.25-.51-.42.2-1.1-.32-.82.34-1.87-.71-.7.26-.04.34-.66.48h-.32l-.8-.27-1.44.4-.41.36h-.54l-.55.4-.93-.17-.56.42-.43-.1-.72-.7-.61.12-.61.35-.71-.43-.2-.38-.54-.22-.54.02-.16-.24-1.16.01-.6-.4-.31.46-.33.01-.57-.67-.5-.28-.33.2-.21.56-.98.05-.5-.36.09-.65-.45-.35-.7-.15-.56.17-.62-.39-.25-.34-.47.31-.28-.12-.14-.42-.74-.52.12-.4-.36-.44-.64-.3-.25-.56-.84-.52-.65.05-.88-.39-.36.24-1.3-.03-.13.71-.85.05-.27.47-.36-.18-.67.53.03.42-1.17.87.05.3-.7.56-.41-.14-.4.14.8-3.02.57-.83-.15-.67.1-.45.38-.52.28-.14.02-.7.65-.03.32.25h.7l.47.22 1.43-.32.29-.6.28.21.26-.4.56.3.95-.37.39-.46.77.52.8.27.28.36.45-.18 1.28.04.37.17.39-.37.62.2 1.07-.37.99-.4.04.23.89-.74.59.2.39-.17.35.13.85-.18.42-.2.3-.95.32-.39.47.07.06-.46-.7.3-.52-.54h-.32l-.57-.67-.8.16-.2-.2-1.5-.25-.9-.58-1.28-.34-.63-.06-.28-.43-.27-.06-.25-.53-.68-.52-2.2-.58-1.01.2-.83-.98-.98.17-1.1-.16-.37.41-.51 1.1-.47-.06-.47.17-.68.47-.4.73-.68.18-.36.3-.38-.3-1 .7-.4-.1-.79.3-1.13.27-.2-.35-.36.21-.67-.22-.55-.69-.99.18.4-.85-.1-.27.46-1.29.37-.55.58-.4.07-.5.36-.3.17-.53.8-.27-.42-1.08-.36-.22-.23-.43.17-.8-.13-.42.12-.5-.4-.34-.19-.48.06-.93.71-.17.53.28.73.7.27.03.2-.86.3-.55.28-.02.5-.34.93-.03.03.43.37.1 1.05-.35.15-.4-.33-.32-.23-.63 1-.47.4.15.16.74.24-.04.4-.48.73-1.2.76-.6-.4-.4-.05-.59.14-.24.7-.46.65.07.18-.9.42-.22.85-.7.31-.4h.54l.25-.56.01-.42.32-.43.97.57.01.8.8.4.85.18.42.3 1.25-.03.53.24.28-.53.5-.32.2-.42.81-.36.34-1.3.83.91.4-.2 1.18-.03.7-.3.65-.58.27.07.75-.46.46-.06 1.95.23.25.37.5-.36.55.16-.17.41.34.28.77.07.6-.09.57-.33.43.15.5.55.22-.02.44.2.54.78.41.1.64-.12.57-.7.41-.1.35 1.2.37.58.42.11.7-.54.28.08.17.81.55.72.7.51 1.36.56.44-.09.51-.43.5-.13.25.15.58.72.6.08.55.3.31.57.32.1.46-.2.9-.67.51.13.85.85.32.04.93-.17.65.01.97.25.9.44.76.05.87.31.71-.04.32-.3.62-.3 1.18-1.24 1.08-.26.32.28.56-.17.28-.35.05-.63.38-.6.16-.66.67-.25.68-.48 1.21-.73 1.17-.12.63-.53.57-.32.94-.04.28-.2.16-.68.66-.85.21-.79.2-.24 1.43-.55.32-.46.78-.29 1.02-.73.48-.09.56-.35.94-.29.37.03.97.54.6-.13.87.35.5.03 1.5-.12 1.22-.5.28-.4.25-.8.02-.96.68-.66.43-.64.52-.36.5-1.59.25-.47.5-.38.86-.14.63-.46.74-.18.37-.34.36.5.37.2-.18.34z">
      </path>

      <path class="mapa-svg-estados Tefé-class" id="Tefé"
        href="https://594aee3c-e15e-44d4-b67a-780ff78cdb01.filesusr.com/ugd/b61413_1841120114c340ec828a006f3484cf26.pdf"
        d="m205.47 188.8-.08 1.11-.3-.24-.32.12-.87.92-.12.95-1.24.49-.25-.1-.66 1.04-1.14.52-.48-.16-1.04.37-.8-.36-.73-.14-.28.09-.41.45-.04.76-.28.38-.5.19-.63.96-.23.16-.64-.21-.38.46-.08.65-.16.29-.81.19-.25.28-.41.79-.87.39-.47-.12-.97.26-.6-.25-.43.47-.21.91-.05.92-.52.54-.8.2-.28.31-.26.77-1.1.86-.58.37-.7.6-.52.1-.56-.05-.61-.3-.18.07-.32.77-.41.23-.47.02-.26.22-.3 1.45-.14.27-.8.68-.45.7-.58.51-.08.28.15.78-.92 1.4-.78.15-.34.23-.21 1.07.68.02.17.5-.71.67-.19.3.07.57.32.7.03.67-.25.2-.65-.44-.75.36-.6-.13-.87.44-.63.95-.2 1.05-.23.02-.49-.55-.43-.15-.58.33-.59.1-.77-.08-.34-.28.17-.4-.56-.17-.49.36-.25-.37-1.95-.23-.46.06-.75.46-.27-.07-.65.57-.7.31-1.18.03-.4.2-.83-.9-.34 1.3-.82.36-.2.42-.49.32-.28.53-.53-.24-1.25.02-.42-.3-.85-.18-.8-.4v-.8l-.98-.57-.27-.49.3-.63.05-.42.36-.23-.09-.75.1-.29.41.06.44-.8.48-.37.33-.07.42-.56.43-.18.38-1.2.94-.5 1.05.23.55.3.37-.22.44-.8.56-.7.34-.67.41-.36.6-.27.2-.4.76-.55.53-.66.43.06.42-.4.62-.36.61-.08.27-.2.3-1.78.67-.52.07-.63-.18-.57.04-.8-.12-.59.4-.19.61-.66.05-.34.9-.52.71.1.58-.53.91-.97.44-.39.52.18.21-.2.64-.72.48-.06.67-.56.71-.04 1.45-.96.34-.38 1.25-.5.21.06.64-.38.54-.09.64-.63 1.02-.45.37-.07.9-.65.68-.23.62-.4.43.05.28-.26.51-.1.22-.35.47-.08.73-.93.45-.77.53-.44.27.12.66-.16-.17-1.03.05-.8.23-.46.75-.58-.34-.63.15-.55.36-.34-.33-.54.16-.3.4.02.47-.67.53-.5.12-.56.72-.26.58-.65.24-.06.36-.49 1-.3v-.26l.75.03.08-.29.96.44 1.35.41.4.27.22.43.82 1.1.33.88.35.37.66.34.56.6 1.13.59 1.33.96.68.67.85.45z">
      </path>

      <path class="mapa-svg-estados Tonantins-class" id="Tonantins"
        href="https://594aee3c-e15e-44d4-b67a-780ff78cdb01.filesusr.com/ugd/b61413_6e92acdb2bda4a85a1208a6c85f31d22.pdf"
        d="m151.4 169.7-.56.99-.3.14-.63-.08-.4-.77-.11-.89-.21-.55-.63-.28v6.03h-.26l-.62-.43-.18.35h-.57l-1 .22-.4-.4-.71.1-.63.28h-.41l-.28.43-.51.5-1-.84-.85.15-.57.53-.21.67-5.12.04-.78-.06-.62-.4-.36.3-.9.08-.22-.49-.51.11-.3-.87-.44-.08-.67.12-.6-.33-.5-.1v-.35l-.64-.14-1.01.06-.3-.19-.5.11-.63-.08-.46.13-.43-.2-.61-.9-.92-.36-.24-.6.88-.4.32-.64.4-.5.88.16.3-.83.95-.28 1.58.46.8-.06.34-.35.23-.74.3-.43 1.12.21.54.53.43.01.28-.32 1.14-.2.35.32.55-.13.13.31-.08.67.72.98.82.43.3-.37.43.35.54.04 1.29.76.48-.44.7.02.07-.42.3-.49-.13-.44.8-.48.07-.28.46-.07.48-.44.18-1.2 1.05-.33.22-1.45.3-.36.38-.05.55-.42.43-.14.96-.57h.32l.22-.4.75-.44-.15-.42.66-1.07.69 1.03.49.15-.01.46-.54.67.95.22.57.76.3.59-.4.27-.47.7-.46.5.5.68.08.9.2.58z">
      </path>

      <path class="mapa-svg-estados Uarini-class" id="Uarini"
        href="https://594aee3c-e15e-44d4-b67a-780ff78cdb01.filesusr.com/ugd/b61413_d700e40fab4d449e915f3da3a62c148b.pdf"
        d="m192.85 179.16-.32-.16-.4-.66-.72-.27h-.53l-.32-.36-.56-.29-.49-.07v.65l-1.08 1.38-.22.4-.08.95-.28.96-.7 1.03-.43.47-.45.04-.16.66-.73.61-.75.08-.79.33-.66.09-.77.32-.5.54-.38.67-.86.44-.5-.34-.56.67-.3.14-1.39-.13-.46.32-.05.96-.86.8-.3 1.24-1.06.54-.23.77-.66.73-.37.62-.14.7.13.58.24.4v.44l-.29.36-.2.6-.64-1.12-.26-.6-.6-.65.13-.72-.58-.97-.1-.79.12-1.28.54-.6-.22-.36-.53-.05.1-.77-.11-.9.14-1.2-.02-.9.13-.5.62-.45.37-.77.06-.5.84-.86.03-.64.52-.65.13-.48.53-1 .68-.23.2-.26.34-1.1.02-.31.44-.44.51-.91.37-.81.3-.3.46-.15.19-.68.26-.33.52.3.5-.08.6-.45.5.16.36-.22.4.32.8-.34.62-.61.14-.81-.68-1-.17-.54.12-.37.39-.3.79-.19.9-.56.1-.76-1.03-1.54-.45-.05.03-.24.5-.5v-.39l-.72-.28-.66.11.06-.3.56-.35.58-.03.78.33.37.04.45.1.3-.5-.12-1.22.47-.13.08.57.66.18.2.2.4 1.02.34.48.74 1.5 1.02.94.3.62-.22.8-.17 1.1.39.35 1.14-.22.5.03.39.41-.2 1.36-.24.55-.02.56 1.45 1.28.12 1.2.8 1.07.42.16.35.39-.07.22-1.12.33z">
      </path>

      <path class="mapa-svg-estados Urucará-class" id="Urucará"
        href="https://594aee3c-e15e-44d4-b67a-780ff78cdb01.filesusr.com/ugd/b61413_28e289ab0d834f97be9464b703d2a59e.pdf"
        d="m323.3 165.4.94.63.39.7-3 .04-1.62-.02-.36 1.06-.85 1.3-.89 1.21-1.32 1.3-.8.43-.82-.1-.7.13-.38.08-.33-.3.43-.27-.17-.47.3-.15-.25-.6-.43.2.5-.97.83-.16 1.1-.22 1.03-1-.75-.16-.42-.33-.16-.58-.29-.19-.2-.57-.38-.54h-1.58l-.07-.65.15-1.06-.33-.7-.69-.78-1.4-.1-.05-.38-.4-.57.09-.52-.46-.09-.48-.34.24-.74-.26-1.1-.86-.42-.24-.26v-.46l-.23-.24-.38.19-.66-.47-.39.14-.54-.03-.38-.3-.29-.57-.75-.82-.08-.3-1.33-.27-.9-.66.48-.49-.34-.27.17-.4-.49-1.02v-.33l-1-1.03-.18.32-.49.05-.45-.98-.4-.4-1.67.01-.42-.27-.12-.52-1.07-.22-.38-.68-.07-.37-.36.02-.89-1.19-.55.31-.13-.26-.62-.2-.48-.5-.67-.03-.33-.4-1.06-.72-.25-.44-.42-.24-.03-.3-.49-.05-.73-.29-.28.26-.3-.12-.02-.72-3.98.05-.28-.08-.17-.42-.68-.27-.16.41-.4.28-.29-.45-1.22-.6-.99-1.37.06-.33-.3-.67-.67-.28-.65-.78-.3.04-.5-.37-.63-.74-.4-.86.08-.25-.43-.93.16-.44.4-.59-.28-.37.66-.48h.6l.3-.69-.07-.26 1.08-1.07.4.25.7-1.02-.39-.34.25-2.2.54-.34-.04-.33-.66-.85-.45-.33-.7-.23-.12-.43.7-.53.28-.44v-.43l-.93-1.42-.46.31.22.55-.1.43-.7.41-.85-.34-1.04.08-.7.56-.55.17-.47-.06-.84.64-.17-.23.47-.8.11-.6 1.13-1 .01-.33.32-.75-.2-.27.32-.33 1-.73.36-1.77h14.95l.21.67.81.04.14.54.61 1.17h.76l.05.8.13.6.67.08.11.45 1.65.42.04.55-.24.32.47.66-.05 1.2-.15.17-.53-.26-.1 1.15-.2.78.86.51-.27.58-.56.5-.28.42.22.18.22.76.47.42.46.03.6.43.22 1.17.3.67.6.81.55.58-.14.72.39 1.18-.08.36.18.38.67.84.29.22.2.55.56.02.23.41.4.18-.21.74.08.3.57.15.45-.26.27.3.29.7-.12.47.4 1.62.86.14.34.2.65-.3.5.42.08.62-.2.74.75.9.22.5.67.28.1.25-.31.62.08.42.45.36-.08.7.77 1.05.56-.03.62.62.35.5.58-.02.32.47.65.2-.01.35.59.32.2.96.03.64.2.22v.6l.35.11-.2 1.04.48.5.15 1.08-.18.28.37.63h.3l.26.4.6-.17.3.6.48.06.14.68.3.51.93 1 .4-.09.42.41.86.31.12.55.66-.2.48.3.46.08.14.53.45.05.34.5.54-.29.93.17z">
      </path>

      <path class="mapa-svg-estados Urucurituba-class" id="Urucurituba"
        href="https://594aee3c-e15e-44d4-b67a-780ff78cdb01.filesusr.com/ugd/b61413_1772953fea294956bc603543db3a0360.pdf"
        d="m322.9 169.1-.17.43.11.47-.47.65.01.3.7.27v.49l-.66.13-.6.56-.08.55-.5.13-.2.25-.38-.08-.37.23-.44.93-.54.43-.24.47-.56.04-.7.32h-.4l-.67.53-.72-.64-.3.13-.78.01-.2-.19-1.82 3.2-.36.27-.14.47-.37.46-.42.24-.28-.48h-1.96v-.32l.33-.8.1-1.25-.16-.33.27-.29.36-.89.21-.93.5-.66-.16-.33.71-.68.54-.24.86-.02.58-.17.73-.69.71-.12.81.1.81-.44 1.32-1.29.9-1.2.84-1.3.36-1.07 1.62.01 3-.04.73.6z">
      </path>
    </svg>
